<?xml version="1.0" encoding="UTF-8" standalone="no"?>
<svg width="62px" height="62px" viewBox="0 0 62 62" version="1.1" xmlns="http://www.w3.org/2000/svg" xmlns:xlink="http://www.w3.org/1999/xlink">
    <!-- Generator: Sketch 3.6.1 (26313) - http://www.bohemiancoding.com/sketch -->
    <title>icon-smiley</title>
    <desc>Created with Sketch.</desc>
    <defs></defs>
    <g id="Welcome" stroke="none" stroke-width="1" fill="none" fill-rule="evenodd">
        <g id="Desktop-HD" transform="translate(-1057.000000, -621.000000)" stroke-width="1.5">
            <g id="icon-smiley" transform="translate(1058.000000, 622.000000)">
                <path d="M59.95475,29.9344167 C59.95475,46.3019167 46.6855833,59.5744167 30.31475,59.5744167 C13.94475,59.5744167 0.675583333,46.3019167 0.675583333,29.9344167 C0.675583333,13.5644167 13.94475,0.294416667 30.31475,0.294416667 C46.6855833,0.294416667 59.95475,13.5644167 59.95475,29.9344167 L59.95475,29.9344167 Z" id="Stroke-21" stroke="#B5BCC2"></path>
                <path d="M7.40933333,27.80575 L23.0285,27.80575 C23.0285,27.80575 27.181,13.5874167 15.2193333,13.5874167 C3.25683333,13.5874167 7.40933333,27.80575 7.40933333,27.80575 L7.40933333,27.80575 Z" id="Stroke-23" stroke="#B5BCC2"></path>
                <path d="M34.0120833,27.80575 L49.63125,27.80575 C49.63125,27.80575 53.78375,13.5874167 41.8220833,13.5874167 C29.8595833,13.5874167 34.0120833,27.80575 34.0120833,27.80575 L34.0120833,27.80575 Z" id="Stroke-25" stroke="#B5BCC2"></path>
                <path d="M7.40933333,35.5811667 L47.466,35.5811667 C47.466,35.5811667 48.0426667,54.6861667 30.3151667,54.6861667 C12.5868333,54.6861667 11.6735,36.9145 11.6735,36.9145 L11.6735,36.1561667 L11.6735,35.912" id="Stroke-27" stroke="#B5BCC2"></path>
                <path d="M22.7093333,18.2121667 C22.7093333,20.4121667 20.926,22.1963333 18.7251667,22.1963333 C16.5251667,22.1963333 14.741,20.4121667 14.741,18.2121667 C14.741,16.0121667 16.5251667,14.228 18.7251667,14.228 C20.926,14.228 22.7093333,16.0121667 22.7093333,18.2121667 L22.7093333,18.2121667 Z" id="Stroke-29" stroke="#B5BCC2" stroke-linecap="round" stroke-linejoin="round"></path>
                <path d="M49.1313333,18.2121667 C49.1313333,20.4121667 47.348,22.1963333 45.1471667,22.1963333 C42.9471667,22.1963333 41.163,20.4121667 41.163,18.2121667 C41.163,16.0121667 42.9471667,14.228 45.1471667,14.228 C47.348,14.228 49.1313333,16.0121667 49.1313333,18.2121667 L49.1313333,18.2121667 Z" id="Stroke-31" stroke="#B5BCC2" stroke-linecap="round" stroke-linejoin="round"></path>
                <path d="M43.295,48.9390833 C41.8925,45.5015833 38.5216667,43.0774167 34.58,43.0774167 C29.3808333,43.0774167 25.1666667,47.2915833 25.1666667,52.49075 C25.1666667,53.0549167 25.225,53.6040833 25.32,54.14075 C26.8183333,54.4849167 28.4708333,54.6865833 30.315,54.6865833 C36.7633333,54.6865833 40.7816667,52.15575 43.295,48.9390833 L43.295,48.9390833 Z" id="Stroke-33" stroke="#4CD3DC" stroke-linecap="round" stroke-linejoin="round"></path>
            </g>
        </g>
    </g>
</svg>