<?xml version="1.0" encoding="utf-8"?>
<!-- Generator: Adobe Illustrator 17.1.0, SVG Export Plug-In . SVG Version: 6.00 Build 0)  -->
<!DOCTYPE svg PUBLIC "-//W3C//DTD SVG 1.1//EN" "http://www.w3.org/Graphics/SVG/1.1/DTD/svg11.dtd" [
	<!ENTITY ns_flows "http://ns.adobe.com/Flows/1.0/">
	<!ENTITY ns_extend "http://ns.adobe.com/Extensibility/1.0/">
	<!ENTITY ns_ai "http://ns.adobe.com/AdobeIllustrator/10.0/">
	<!ENTITY ns_graphs "http://ns.adobe.com/Graphs/1.0/">
]>
<svg version="1.1" xmlns:x="&ns_extend;" xmlns:i="&ns_ai;" xmlns:graph="&ns_graphs;"
	 xmlns="http://www.w3.org/2000/svg" xmlns:xlink="http://www.w3.org/1999/xlink" xmlns:a="http://ns.adobe.com/AdobeSVGViewerExtensions/3.0/"
	 x="0px" y="0px" viewBox="0 0 85 85" enable-background="new 0 0 85 85" xml:space="preserve">
<symbol  id="New_Symbol_1" viewBox="-125.6 -186 253.9 407.4">
	<path fill="#183029" d="M-55.1-1.4c0,0-22.5-15.6-22.2-39.2C-88.8-20.1-116-17.8-116-17.8c8.1-52.9,44.1-42.7,44.1-42.7
		S-35.6-51.3-55.1-1.4z"/>
	<path fill="#183029" d="M4,187.5c0,0,6.5,41.5,64.5,32.7C68.5,220.2,45.3,177.6,4,187.5z"/>
	<path fill="none" stroke="#183029" stroke-width="8" stroke-miterlimit="10" d="M23.9,197.2c0,0-35.6-18.3-46.6-27
		C-49.1,149.1-94.5,105.6-92.4,31c3.1-106.9,74.5-162,170.5-194.5c17-4,41-12.5,47-20"/>
	<g>
		<path fill="#183029" d="M24.9-101.2c0,0-6.1-26.7,10.1-43.9c-22.4,7.4-44.1-9.3-44.1-9.3c41.6-33.6,61.4-1.8,61.4-1.8
			S72.9-124.9,24.9-101.2z"/>
		<g>
			<path fill="#E3EBEB" d="M33.2-120c0,0,0.3-0.3,0.6-0.9c0.4-0.6,0.9-1.5,1.5-2.5c0.6-1,1.2-2.2,1.9-3.5c0.6-1.3,1.3-2.7,1.9-4.1
				c0.3-0.7,0.6-1.4,0.9-2.1c0.3-0.7,0.6-1.4,0.8-2.1c0.3-0.7,0.5-1.3,0.7-2c0.2-0.6,0.4-1.2,0.6-1.8c0.2-0.6,0.3-1.1,0.5-1.6
				c0.2-0.5,0.2-0.9,0.3-1.2c0.2-0.7,0.2-1.1,0.2-1.1s-1.4,1-3,2.8c-0.4,0.5-0.8,1-1.2,1.5c-0.4,0.6-0.9,1.2-1.2,1.8
				c-0.4,0.6-0.8,1.3-1.2,2c-0.4,0.7-0.7,1.4-1,2.2c-0.3,0.7-0.6,1.5-0.9,2.2c-0.3,0.7-0.5,1.5-0.7,2.2c-0.4,1.5-0.6,2.9-0.7,4.1
				c-0.1,1.2-0.1,2.3-0.1,3C33.1-120.4,33.2-120,33.2-120z"/>
		</g>
		<g>
			<path fill="#E3EBEB" d="M16.6-152.5c0,0,0.4,0.2,1,0.5c0.7,0.3,1.6,0.7,2.8,1.1c1.2,0.4,2.5,0.7,4,0.9c1.5,0.2,3.1,0.4,4.6,0.4
				c0.8,0,1.6,0,2.4,0c0.8,0,1.5-0.1,2.3-0.2c1.5-0.2,2.9-0.4,4-0.7c1.2-0.3,2.1-0.6,2.8-0.9c0.7-0.3,1.1-0.5,1.1-0.5
				s-0.4-0.2-1.1-0.3c-0.7-0.2-1.7-0.4-2.8-0.6c-1.2-0.2-2.5-0.4-4-0.5c-1.4-0.1-3-0.2-4.5-0.3c-3.1-0.1-6.2,0.1-8.5,0.3
				c-1.2,0.1-2.2,0.3-2.9,0.4C17-152.7,16.6-152.5,16.6-152.5z"/>
		</g>
	</g>
	<g>
		<path fill="#E3EBEB" d="M-99.2-33.1c0,0,0.4-0.2,1-0.6c0.7-0.4,1.5-0.9,2.6-1.6c1-0.7,2.2-1.5,3.4-2.5c0.6-0.4,1.2-0.9,1.9-1.4
			c0.6-0.5,1.3-1,1.9-1.5c0.6-0.5,1.2-1,1.9-1.5c0.6-0.5,1.2-1,1.8-1.5c0.6-0.5,1.1-1,1.7-1.4c0.5-0.5,1-0.9,1.5-1.3
			c0.5-0.4,0.9-0.8,1.2-1.2c0.4-0.3,0.7-0.7,1-0.9c0.5-0.5,0.8-0.9,0.8-0.9s-0.4,0-1.2,0.2c-0.4,0.1-0.8,0.2-1.3,0.3
			c-0.5,0.1-1.1,0.3-1.7,0.5c-0.6,0.2-1.3,0.5-1.9,0.8c-0.7,0.3-1.4,0.7-2.1,1.1c-1.4,0.8-2.8,1.8-4.1,2.8c-2.7,2.1-4.9,4.7-6.3,6.9
			c-0.7,1.1-1.2,2-1.5,2.7C-99.1-33.5-99.2-33.1-99.2-33.1z"/>
	</g>
	<g>
		<path fill="#183029" d="M-12.8-75.9c0,0-10.7-25.2,2.1-45c-20.7,11.3-45-1.3-45-1.3c35-40.5,60.1-12.7,60.1-12.7
			S30.2-107.8-12.8-75.9z"/>
		<g>
			<path fill="#E3EBEB" d="M-31.3-125.1c0,0,0.4,0.2,1.1,0.4c0.7,0.2,1.7,0.5,2.9,0.7c1.2,0.2,2.6,0.4,4.1,0.4c1.5,0,3.1,0,4.7-0.2
				c0.8-0.1,1.6-0.2,2.4-0.4c0.8-0.1,1.5-0.3,2.3-0.5c0.7-0.2,1.4-0.4,2.1-0.7c0.7-0.2,1.3-0.5,1.8-0.7c1.1-0.5,2-1,2.6-1.4
				c0.6-0.4,1-0.6,1-0.6s-0.4-0.1-1.1-0.1c-0.4,0-0.8-0.1-1.3-0.1c-0.5,0-1,0-1.6,0c-1.2,0-2.6,0-4,0.2c-0.7,0-1.5,0.1-2.2,0.2
				c-0.8,0.1-1.5,0.2-2.3,0.2c-3.1,0.4-6.1,0.9-8.4,1.5c-1.2,0.3-2.1,0.6-2.8,0.8C-30.9-125.2-31.3-125.1-31.3-125.1z"/>
		</g>
		<g>
			<path fill="#E3EBEB" d="M-7.1-98c0,0,0.2-0.4,0.5-1c0.3-0.6,0.7-1.6,1.1-2.7c0.9-2.2,1.8-5.1,2.6-8c0.2-0.7,0.4-1.5,0.6-2.2
				c0.2-0.7,0.3-1.4,0.5-2.2c0.3-1.4,0.5-2.7,0.7-3.9c0.2-1.2,0.3-2.2,0.3-2.9c0.1-0.7,0-1.1,0-1.1s-0.3,0.3-0.8,0.8
				c-0.5,0.5-1.1,1.3-1.8,2.4c-1.3,2-2.6,5-3.5,8c-0.4,1.5-0.7,3.1-0.9,4.6c-0.2,1.5-0.2,2.9-0.1,4.1c0.1,1.2,0.2,2.2,0.4,2.9
				C-7.2-98.4-7.1-98-7.1-98z"/>
		</g>
	</g>
	<g>
		<path fill="#E3EBEB" d="M-61.8-20.9c0,0,0.1-0.4,0.2-1.1c0.1-0.7,0.2-1.7,0.3-3c0.1-2.4-0.3-5.7-1.1-8.8c-0.2-0.8-0.4-1.5-0.7-2.3
			c-0.2-0.8-0.5-1.5-0.8-2.2c-0.6-1.4-1.2-2.7-1.8-3.7c-0.6-1.1-1.2-1.9-1.7-2.5c-0.5-0.6-0.8-0.9-0.8-0.9s0,0.4,0,1.2
			c0,0.7,0.1,1.7,0.2,2.9c0.2,1.2,0.4,2.6,0.6,4c0.3,1.4,0.6,3,1,4.5c0.4,1.5,0.8,3,1.3,4.4c0.5,1.4,0.9,2.7,1.4,3.8
			c0.5,1.1,0.9,2,1.2,2.7C-62-21.2-61.8-20.9-61.8-20.9z"/>
	</g>
	<g>
		<path fill="#183029" d="M-61.9,43.7c0,0-25.7-9.4-31.4-32.3c-5.9,22.8-31.7,32-31.7,32C-130.7-9.7-93.3-9.1-93.3-9.1
			S-55.8-9.4-61.9,43.7z"/>
		<g>
			<path fill="#E3EBEB" d="M-114,22.7c0,0,0.3-0.3,0.9-0.8c0.6-0.5,1.3-1.3,2.2-2.1c0.9-0.9,1.9-1.9,2.9-3c1-1.1,2.1-2.3,3.3-3.4
				c0.5-0.6,1.1-1.2,1.6-1.7c0.5-0.6,1.1-1.1,1.6-1.7c0.5-0.6,1-1.1,1.5-1.6c0.5-0.5,0.9-1,1.3-1.5c0.4-0.5,0.8-0.9,1.1-1.3
				c0.4-0.4,0.6-0.7,0.9-1c0.5-0.6,0.7-1,0.7-1s-0.4,0.1-1.2,0.3c-0.7,0.2-1.8,0.5-3,1.1c-0.6,0.3-1.2,0.6-1.9,1
				c-0.6,0.4-1.3,0.8-2,1.3c-0.6,0.5-1.3,1-1.9,1.6c-0.6,0.6-1.3,1.2-1.9,1.8c-0.6,0.6-1.2,1.3-1.7,2c-0.5,0.7-1,1.4-1.5,2
				c-0.9,1.4-1.6,2.7-2.1,3.9c-0.3,0.6-0.4,1.2-0.6,1.7c-0.2,0.5-0.3,1-0.4,1.3C-113.9,22.3-114,22.7-114,22.7z"/>
		</g>
		<g>
			<path fill="#E3EBEB" d="M-71,25.8c0,0,0.1-0.4,0.1-1.2c0-0.7-0.1-1.8-0.3-3c-0.2-1.2-0.6-2.6-1.1-4.1c-0.3-0.7-0.6-1.5-0.9-2.2
				c-0.4-0.7-0.8-1.5-1.2-2.2c-0.5-0.7-0.9-1.4-1.4-2.1c-0.5-0.7-1-1.3-1.6-1.9c-0.6-0.6-1.1-1.1-1.7-1.6c-0.6-0.4-1.1-0.9-1.7-1.2
				c-0.5-0.3-1.1-0.6-1.5-0.9c-0.5-0.2-0.9-0.4-1.2-0.5c-0.7-0.3-1.1-0.4-1.1-0.4s0.2,0.4,0.6,1c0.2,0.3,0.5,0.7,0.7,1
				c0.3,0.4,0.6,0.9,0.9,1.4c0.4,0.5,0.7,1,1,1.6c0.4,0.5,0.7,1.1,1.1,1.7c0.4,0.6,0.8,1.2,1.2,1.9c0.4,0.6,0.8,1.3,1.2,1.9
				c0.8,1.3,1.6,2.6,2.4,3.9c0.8,1.2,1.5,2.4,2.2,3.4c0.7,1,1.3,1.8,1.7,2.4C-71.3,25.4-71,25.8-71,25.8z"/>
		</g>
	</g>
	<g>
		<path fill="#183029" d="M-50,91.8c0,0-27.2-2.8-38.4-23.6c-0.1,23.6-22.9,38.8-22.9,38.8c-18.5-50.2,17.9-58.7,17.9-58.7
			S-57.2,38.8-50,91.8z"/>
		<g>
			<path fill="#E3EBEB" d="M-106.6,84.8c0,0,0.2-0.4,0.6-1.1c0.4-0.7,0.8-1.6,1.4-2.7c0.5-1.1,1.2-2.4,1.8-3.8
				c0.6-1.4,1.3-2.8,2-4.3c0.3-0.7,0.7-1.4,1-2.2c0.3-0.7,0.7-1.4,1-2.1c0.3-0.7,0.6-1.3,0.9-2c0.3-0.7,0.6-1.3,0.8-1.8
				c0.2-0.6,0.5-1.1,0.7-1.6c0.2-0.5,0.4-0.9,0.5-1.2c0.3-0.7,0.4-1.1,0.4-1.1s-0.4,0.2-1,0.6c-0.6,0.4-1.5,1.1-2.4,2
				c-0.5,0.4-1,1-1.4,1.5c-0.5,0.6-1,1.2-1.4,1.8c-0.4,0.7-0.9,1.4-1.3,2.1c-0.4,0.7-0.8,1.5-1.2,2.3c-0.4,0.8-0.7,1.6-1,2.4
				c-0.3,0.8-0.5,1.6-0.7,2.4c-0.4,1.6-0.6,3.1-0.7,4.4c-0.1,0.6,0,1.3,0,1.8c0,0.5,0.1,1,0.1,1.4
				C-106.7,84.4-106.6,84.8-106.6,84.8z"/>
		</g>
		<g>
			<path fill="#E3EBEB" d="M-64.9,76.2c0,0-0.1-0.4-0.3-1.1c-0.3-0.7-0.7-1.7-1.3-2.8c-0.6-1.1-1.4-2.3-2.4-3.5
				c-0.5-0.6-1.1-1.2-1.6-1.8c-0.6-0.6-1.2-1.1-1.9-1.7c-0.7-0.5-1.3-1-2-1.5c-0.7-0.4-1.4-0.9-2.1-1.2c-0.7-0.3-1.4-0.7-2.1-0.9
				c-0.7-0.2-1.3-0.5-2-0.6c-0.6-0.1-1.2-0.2-1.7-0.3c-0.5-0.1-1-0.1-1.3-0.1c-0.7,0-1.2,0-1.2,0s0.3,0.3,0.9,0.7
				c0.3,0.2,0.6,0.5,1,0.7c0.4,0.3,0.8,0.6,1.3,1c0.5,0.3,1,0.8,1.5,1.1c0.5,0.4,1.1,0.8,1.6,1.3c0.6,0.4,1.1,0.9,1.7,1.4
				c0.6,0.4,1.2,1,1.8,1.4c1.2,1,2.4,1.9,3.5,2.8c1.1,0.9,2.2,1.8,3.2,2.5c1,0.7,1.8,1.3,2.4,1.7C-65.3,76-64.9,76.2-64.9,76.2z"/>
		</g>
	</g>
	<g>
		<path fill="#183029" d="M-22.9,130.6c0,0-26.2,7.9-44.5-7c9,21.8-6.2,44.6-6.2,44.6c-36.4-39.2-6.1-61.1-6.1-61.1
			S-49.8,84.4-22.9,130.6z"/>
		<g>
			<path fill="#E3EBEB" d="M-75.4,146.3c0,0,0-0.5,0-1.2c0-0.8,0-1.8,0-3.1c0-1.2-0.1-2.7-0.1-4.2c-0.1-1.5-0.1-3.1-0.2-4.7
				c-0.1-0.8-0.1-1.6-0.1-2.4c0-0.8-0.1-1.6-0.1-2.3c-0.1-0.8-0.1-1.5-0.1-2.2c-0.1-0.7-0.1-1.4-0.1-2c-0.1-0.6-0.1-1.2-0.1-1.7
				c0-0.5-0.1-1-0.1-1.3c-0.1-0.8-0.2-1.2-0.2-1.2s-0.3,0.4-0.6,1c-0.4,0.7-0.9,1.7-1.3,2.9c-0.2,0.6-0.4,1.3-0.6,2
				c-0.2,0.7-0.4,1.5-0.4,2.3c-0.1,0.8-0.2,1.6-0.2,2.5c0,0.8-0.1,1.7,0,2.6c0,0.9,0.1,1.7,0.2,2.6c0.1,0.8,0.3,1.7,0.4,2.5
				c0.4,1.6,0.8,3,1.4,4.2c0.3,0.6,0.5,1.1,0.8,1.6c0.2,0.5,0.5,0.9,0.7,1.2C-75.7,145.9-75.4,146.3-75.4,146.3z"/>
		</g>
		<g>
			<path fill="#E3EBEB" d="M-42.3,119.6c0,0-0.3-0.3-0.8-0.8c-0.5-0.5-1.4-1.2-2.4-1.9c-1-0.7-2.3-1.4-3.8-2
				c-0.7-0.3-1.5-0.6-2.3-0.8c-0.8-0.2-1.6-0.4-2.4-0.6c-0.8-0.1-1.6-0.3-2.5-0.4c-0.8-0.1-1.6-0.1-2.4-0.1c-0.8,0-1.6,0-2.3,0.1
				c-0.7,0.1-1.4,0.2-2,0.4c-0.6,0.2-1.2,0.3-1.7,0.5c-0.5,0.2-0.9,0.4-1.2,0.6c-0.7,0.3-1,0.6-1,0.6s0.4,0.1,1.2,0.2
				c0.4,0.1,0.8,0.1,1.3,0.2c0.5,0.1,1,0.2,1.6,0.3c0.6,0.1,1.2,0.2,1.9,0.3c0.7,0.1,1.3,0.3,2,0.4c0.7,0.1,1.4,0.3,2.2,0.4
				c0.7,0.1,1.5,0.3,2.2,0.5c1.5,0.3,3,0.6,4.4,0.9c1.4,0.3,2.8,0.6,4,0.8c1.2,0.2,2.2,0.3,2.9,0.4
				C-42.7,119.5-42.3,119.6-42.3,119.6z"/>
		</g>
	</g>
	<g>
		<path fill="#183029" d="M20.2,169.2c0,0-24.2,12.9-45,1.8c13,19.7,2.6,45,2.6,45C-65.5,184.6-40,157.3-40,157.3
			S-15.3,129.2,20.2,169.2z"/>
		<g>
			<path fill="#E3EBEB" d="M-32.6,193.2c0,0,0-0.5-0.1-1.2c-0.1-0.8-0.2-1.8-0.3-3c-0.2-1.2-0.3-2.7-0.6-4.2
				c-0.2-1.5-0.5-3.1-0.7-4.7c-0.2-0.8-0.2-1.6-0.4-2.4c-0.1-0.8-0.2-1.6-0.4-2.3c-0.1-0.7-0.2-1.5-0.3-2.2c-0.1-0.7-0.2-1.4-0.3-2
				c-0.1-0.6-0.2-1.2-0.3-1.7c-0.1-0.5-0.2-1-0.3-1.3c-0.2-0.7-0.3-1.2-0.3-1.2s-0.2,0.4-0.5,1.1c-0.3,0.7-0.7,1.7-0.9,3
				c-0.1,0.6-0.3,1.3-0.4,2.1c-0.1,0.7-0.2,1.5-0.2,2.3c0,0.8-0.1,1.7,0,2.5c0.1,0.8,0.1,1.7,0.3,2.6c0.1,0.9,0.3,1.7,0.5,2.5
				c0.2,0.8,0.4,1.6,0.7,2.4c0.5,1.5,1.2,2.9,1.8,4c0.3,0.6,0.6,1.1,0.9,1.5c0.3,0.4,0.6,0.8,0.8,1.1
				C-32.9,192.9-32.6,193.2-32.6,193.2z"/>
		</g>
		<g>
			<path fill="#E3EBEB" d="M-2.4,163.2c0,0-0.3-0.3-0.9-0.8c-0.6-0.4-1.5-1-2.6-1.6c-1.1-0.6-2.5-1.1-4-1.6
				c-0.7-0.2-1.5-0.4-2.3-0.6c-0.8-0.2-1.6-0.3-2.5-0.4c-0.8,0-1.7-0.2-2.5-0.1c-0.8,0-1.6,0-2.4,0.1c-0.8,0.1-1.5,0.2-2.3,0.4
				c-0.7,0.2-1.4,0.3-2,0.6c-0.6,0.2-1.1,0.5-1.6,0.7c-0.5,0.2-0.8,0.5-1.2,0.7c-0.6,0.4-1,0.7-1,0.7s0.4,0.1,1.2,0.1
				c0.4,0,0.8,0,1.3,0c0.5,0,1,0.1,1.6,0.1c0.6,0,1.2,0.1,1.9,0.1c0.7,0,1.4,0.1,2.1,0.2c0.7,0,1.5,0.1,2.2,0.2
				c0.7,0,1.5,0.2,2.3,0.2c1.5,0.2,3.1,0.3,4.5,0.4c1.5,0.1,2.8,0.3,4,0.3c1.2,0.1,2.2,0.1,3,0.1C-2.9,163.2-2.4,163.2-2.4,163.2z"
				/>
		</g>
	</g>
	<g>
		<path fill="#183029" d="M-39.8-41.6c0,0-16.2-22-8.3-44.3c-17.5,15.8-44.1,9.2-44.1,9.2c24.7-47.4,55.5-26.2,55.5-26.2
			S-5.3-82.6-39.8-41.6z"/>
		<g>
			<path fill="#E3EBEB" d="M-73.2-85.4c0,0,0.4,0.2,1.2,0.3c0.8,0.1,1.8,0.3,3.1,0.3c1.3,0,2.8-0.1,4.4-0.3c0.8-0.1,1.6-0.3,2.4-0.5
				c0.8-0.2,1.6-0.5,2.5-0.8c0.8-0.3,1.6-0.6,2.4-1c0.8-0.3,1.5-0.8,2.2-1.2c0.7-0.4,1.3-0.9,2-1.3c0.6-0.4,1.2-0.9,1.6-1.3
				c1-0.8,1.7-1.7,2.2-2.3c0.5-0.6,0.7-1,0.7-1s-0.4,0.1-1.2,0.3c-0.4,0.1-0.8,0.2-1.3,0.4c-0.5,0.2-1.1,0.3-1.6,0.5
				c-0.6,0.2-1.2,0.4-1.9,0.6c-0.7,0.2-1.3,0.5-2.1,0.7c-0.7,0.3-1.4,0.5-2.2,0.8c-0.8,0.2-1.5,0.6-2.3,0.8c-1.5,0.6-3,1.1-4.4,1.6
				c-1.4,0.5-2.8,1-3.9,1.5c-1.2,0.5-2.1,0.9-2.8,1.2C-72.8-85.6-73.2-85.4-73.2-85.4z"/>
		</g>
		<g>
			<path fill="#E3EBEB" d="M-38.8-65.3c0,0,0.1-0.4,0.3-1.1c0.2-0.7,0.3-1.7,0.5-2.8c0.3-2.3,0.5-5.4,0.5-8.4c0-0.8,0-1.5-0.1-2.3
				c0-0.7-0.1-1.5-0.1-2.2c-0.1-1.4-0.3-2.8-0.4-3.9c-0.2-1.2-0.4-2.1-0.5-2.8c-0.2-0.7-0.3-1.1-0.3-1.1s-0.2,0.4-0.5,1
				c-0.3,0.7-0.7,1.6-1,2.7c-0.7,2.3-1.1,5.4-1.1,8.6c0,1.6,0.1,3.1,0.4,4.6c0.2,1.5,0.5,2.8,0.9,4c0.3,1.1,0.7,2.1,1,2.7
				C-39-65.6-38.8-65.3-38.8-65.3z"/>
		</g>
	</g>
	<g>
		<path fill="#E3EBEB" d="M39.5,211.7c0,0-0.4-0.3-1.1-0.7c-0.7-0.5-1.7-1-2.9-1.8c-2.3-1.4-5.4-3.2-8.6-5c-0.8-0.4-1.5-0.9-2.3-1.4
			c-0.8-0.5-1.5-0.9-2.2-1.3c-0.7-0.4-1.4-0.9-2.1-1.2c-0.7-0.4-1.3-0.8-1.9-1.1c-0.6-0.3-1.2-0.7-1.7-0.9c-0.5-0.3-0.9-0.5-1.3-0.7
			c-0.7-0.4-1.2-0.6-1.2-0.6s0.2,0.4,0.6,1.2c0.4,0.7,1.1,1.8,2,2.9c0.5,0.6,1,1.2,1.5,1.7c0.6,0.6,1.2,1.2,1.9,1.8
			c0.7,0.6,1.4,1.2,2.2,1.7c0.8,0.5,1.6,1.1,2.4,1.5c0.8,0.5,1.7,0.9,2.5,1.3c0.8,0.4,1.7,0.8,2.5,1.1c1.7,0.6,3.3,1.1,4.7,1.3
			c0.7,0.1,1.4,0.2,1.9,0.3c0.6,0.1,1.1,0.1,1.5,0.1C39,211.8,39.5,211.7,39.5,211.7z"/>
	</g>
</symbol>
<g id="Layer_3">
</g>
<g id="Layer_1">
	<g id="Header">
	</g>
	<g>
		<g>
			<g>
				<g>
					<circle fill="#58D3D1" cx="42.3" cy="42.9" r="40"/>
					<g>
						<g>
							<path fill="#242C3C" d="M61.5,53.3c1.7,0,3.1-1.4,3.1-3.1V35.5c0-1.7-1.4-3.1-3.1-3.1H23c-1.7,0-3.1,1.4-3.1,3.1v14.7
								c0,1.7,1.4,3.1,3.1,3.1H61.5z"/>
						</g>
						<circle fill="#FFFFFF" cx="61.6" cy="42.9" r="1.1"/>
						<g>
							<rect x="26" y="33.7" fill="#FFFFFF" width="32.5" height="18.3"/>
						</g>
						<polygon fill="#EE4D4F" points="43.4,39 43.4,39 43.4,39 						"/>
					</g>
				</g>
				<g>
					<path opacity="0.6" fill="#58D3D1"  a:adobe-blending-mode="multiply" d="M32.7,64.3L20.8,52.4c0.6,0.6,1.3,0.9,2.2,0.9h20.8
						h17.7c1.7,0,3.1-1.4,3.1-3.1V35.5c0-0.8-0.3-1.6-0.9-2.2l17.8,17.8c-3.3,15.5-15.5,27.7-31,30.9L32.7,64.3z"/>
					<rect x="63.7" y="33.4" fill="#3C9987" width="0" height="0"/>
				</g>
			</g>
		</g>
		<g>
			<g>
				<path fill="#58D3D1" d="M38.1,42.2h-6.1c0.3,0.7,0.6,1.4,1.1,2h4.1L38.1,42.2z"/>
				<path fill="#58D3D1" d="M39.4,39.5h-7.9c-0.1,0-0.2,0.1-0.2,0.2c0.1,0.6,0.2,1.2,0.4,1.8h6.7L39.4,39.5z"/>
				<path fill="#58D3D1" d="M36.8,44.8h-3.3c0.6,0.8,1.3,1.4,2.1,2c0.1,0.1,0.2,0,0.3-0.1L36.8,44.8z"/>
			</g>
			<g>
				<path fill="#58D3D1" d="M45.2,42.2h6.1c-0.3,0.7-0.6,1.4-1.1,2h-4.1L45.2,42.2z"/>
				<path fill="#58D3D1" d="M43.9,39.5h7.9c0.1,0,0.2,0.1,0.2,0.2c-0.1,0.6-0.2,1.2-0.4,1.8h-6.7L43.9,39.5z"/>
				<path fill="#58D3D1" d="M46.5,44.8h3.3c-0.6,0.8-1.3,1.4-2.1,2c-0.1,0.1-0.2,0-0.3-0.1L46.5,44.8z"/>
			</g>
			<path fill="#58D3D1" d="M41.8,37.3c0-0.1-0.1-0.1-0.1-0.1c-0.1,0-0.1,0-0.1,0.1l-5.3,10.9h3l0.6-1.3c0,0,3.7,0,3.7,0l0.6,1.3h3
				L41.8,37.3z M40.6,44.8l1-2.2l1,2.2H40.6z"/>
		</g>
	</g>
</g>
<g id="Layer_2" display="none">
</g>
</svg>
