<?xml version="1.0" encoding="utf-8"?>
<!-- Generator: Adobe Illustrator 17.1.0, SVG Export Plug-In . SVG Version: 6.00 Build 0)  -->
<!DOCTYPE svg PUBLIC "-//W3C//DTD SVG 1.1//EN" "http://www.w3.org/Graphics/SVG/1.1/DTD/svg11.dtd">
<svg version="1.1" id="Layer_1" xmlns="http://www.w3.org/2000/svg" xmlns:xlink="http://www.w3.org/1999/xlink" x="0px" y="0px"
	 width="162.2px" height="38.1px" viewBox="0 0 162.2 38.1" enable-background="new 0 0 162.2 38.1" xml:space="preserve">
<g>
	<path fill="#FFFFFF" d="M76.3,10.8c0-0.1-0.1-0.1-0.2-0.1c-0.1,0-0.1,0-0.2,0.1l-6.6,13.7h3.7l0.7-1.6c0,0,4.7,0,4.7,0l0.7,1.6h3.7
		L76.3,10.8z M74.9,20.3l1.2-2.8l1.2,2.8H74.9z M89.3,24.6c-3.8,0-7-2.8-7-6.9c0-4.1,3.2-6.9,6.8-6.9c2.9,0,4.7,1.2,5.8,2.9
		l-2.7,1.8c-0.5-0.8-1.3-1.6-3-1.6c-2,0-3.2,1.6-3.2,3.8s1.2,3.8,3.3,3.8c1.7,0,2.6-0.8,3.2-1.9l2.8,1.8
		C93.9,23.6,92,24.6,89.3,24.6z M96.6,11.1h9.4v3h-5.8v2.2h4.9v2.9h-4.9v2.3h6.1v3h-9.7V11.1z M121.8,11.1h5.5
		c2.7,0,4.7,1.2,4.7,3.3c0,2.1-0.9,2.7-1.8,3.1c1.5,0.4,2.3,1.4,2.3,3c0,2.6-1.7,4-5,4h-5.7V11.1z M127,16.3c1.1,0,1.4-0.5,1.4-1.3
		c0-0.8-0.5-1.1-1.3-1.1h-1.8v2.4H127z M127.4,21.7c1.4,0,1.6-0.8,1.6-1.5c0-0.6-0.2-1.3-1.6-1.3h-2.2v2.8H127.4z M134.4,11.1h3.6
		v10.4h5.7v3h-9.3V11.1z M145.3,11.1h9.4v3h-5.8v2.2h4.9v2.9h-4.9v2.3h6.1v3h-9.7V11.1z M114.2,10.8c0-0.1-0.1-0.1-0.2-0.1
		c-0.1,0-0.1,0-0.2,0.1l-6.6,13.7h3.7l0.7-1.6c0,0,4.7,0,4.7,0l0.7,1.6h3.7L114.2,10.8z M112.8,20.3l1.2-2.8l1.2,2.8H112.8z"/>
	<g>
		<g>
			<path fill="#FFFFFF" d="M27.9,17.5H10c0.8,2.1,1.9,4.1,3.1,5.9l11.9,0L27.9,17.5z"/>
			<path fill="#FFFFFF" d="M31.6,9.7h-23c-0.3,0-0.5,0.3-0.5,0.5c0.2,1.8,0.6,3.6,1.2,5.3h19.5L31.6,9.7z"/>
			<path fill="#FFFFFF" d="M24.1,25.3h-9.7c1.8,2.2,3.8,4.2,6.1,5.9c0.2,0.2,0.6,0.1,0.7-0.2L24.1,25.3z"/>
		</g>
		<g>
			<path fill="#FFFFFF" d="M48.6,17.5h17.9c-0.8,2.1-1.9,4.1-3.1,5.9l-11.9,0L48.6,17.5z"/>
			<path fill="#FFFFFF" d="M44.8,9.7h23c0.3,0,0.5,0.3,0.5,0.5c-0.2,1.8-0.6,3.6-1.2,5.3H47.7L44.8,9.7z"/>
			<path fill="#FFFFFF" d="M52.4,25.3H62c-1.8,2.2-3.8,4.2-6.1,5.9c-0.2,0.2-0.6,0.1-0.7-0.2L52.4,25.3z"/>
		</g>
		<path fill="#FFFFFF" d="M38.7,3.3C38.6,3.1,38.4,3,38.3,3c-0.2,0-0.3,0.1-0.4,0.2L22.5,35h8.6l1.7-3.8c0,0,10.9,0,10.9,0l1.7,3.8
			h8.6L38.7,3.3z M35.4,25.3l2.9-6.5l2.9,6.5H35.4z"/>
	</g>
</g>
</svg>
