<?xml version="1.0" encoding="utf-8"?>
<!-- Generator: Adobe Illustrator 17.1.0, SVG Export Plug-In . SVG Version: 6.00 Build 0)  -->
<!DOCTYPE svg PUBLIC "-//W3C//DTD SVG 1.1//EN" "http://www.w3.org/Graphics/SVG/1.1/DTD/svg11.dtd" [
	<!ENTITY ns_flows "http://ns.adobe.com/Flows/1.0/">
	<!ENTITY ns_extend "http://ns.adobe.com/Extensibility/1.0/">
	<!ENTITY ns_ai "http://ns.adobe.com/AdobeIllustrator/10.0/">
	<!ENTITY ns_graphs "http://ns.adobe.com/Graphs/1.0/">
]>
<svg version="1.1" xmlns:x="&ns_extend;" xmlns:i="&ns_ai;" xmlns:graph="&ns_graphs;"
	 xmlns="http://www.w3.org/2000/svg" xmlns:xlink="http://www.w3.org/1999/xlink" xmlns:a="http://ns.adobe.com/AdobeSVGViewerExtensions/3.0/"
	 x="0px" y="0px" viewBox="0 0 201 62.1" enable-background="new 0 0 201 62.1" xml:space="preserve">
<symbol  id="New_Symbol_1" viewBox="-125.6 -186 253.9 407.4">
	<path fill="#183029" d="M-55.1-1.4c0,0-22.5-15.6-22.2-39.2C-88.8-20.1-116-17.8-116-17.8c8.1-52.9,44.1-42.7,44.1-42.7
		S-35.6-51.3-55.1-1.4z"/>
	<path fill="#183029" d="M4,187.5c0,0,6.5,41.5,64.5,32.7C68.5,220.2,45.3,177.6,4,187.5z"/>
	<path fill="none" stroke="#183029" stroke-width="8" stroke-miterlimit="10" d="M23.9,197.2c0,0-35.6-18.3-46.6-27
		C-49.1,149.1-94.5,105.6-92.4,31c3.1-106.9,74.5-162,170.5-194.5c17-4,41-12.5,47-20"/>
	<g>
		<path fill="#183029" d="M24.9-101.2c0,0-6.1-26.7,10.1-43.9c-22.4,7.4-44.1-9.3-44.1-9.3c41.6-33.6,61.4-1.8,61.4-1.8
			S72.9-124.9,24.9-101.2z"/>
		<g>
			<path fill="#E3EBEB" d="M33.2-120c0,0,0.3-0.3,0.6-0.9c0.4-0.6,0.9-1.5,1.5-2.5c0.6-1,1.2-2.2,1.9-3.5c0.6-1.3,1.3-2.7,1.9-4.1
				c0.3-0.7,0.6-1.4,0.9-2.1c0.3-0.7,0.6-1.4,0.8-2.1c0.3-0.7,0.5-1.3,0.7-2c0.2-0.6,0.4-1.2,0.6-1.8c0.2-0.6,0.3-1.1,0.5-1.6
				c0.2-0.5,0.2-0.9,0.3-1.2c0.2-0.7,0.2-1.1,0.2-1.1s-1.4,1-3,2.8c-0.4,0.5-0.8,1-1.2,1.5c-0.4,0.6-0.9,1.2-1.2,1.8
				c-0.4,0.6-0.8,1.3-1.2,2c-0.4,0.7-0.7,1.4-1,2.2c-0.3,0.7-0.6,1.5-0.9,2.2c-0.3,0.7-0.5,1.5-0.7,2.2c-0.4,1.5-0.6,2.9-0.7,4.1
				c-0.1,1.2-0.1,2.3-0.1,3C33.1-120.4,33.2-120,33.2-120z"/>
		</g>
		<g>
			<path fill="#E3EBEB" d="M16.6-152.5c0,0,0.4,0.2,1,0.5c0.7,0.3,1.6,0.7,2.8,1.1c1.2,0.4,2.5,0.7,4,0.9c1.5,0.2,3.1,0.4,4.6,0.4
				c0.8,0,1.6,0,2.4,0c0.8,0,1.5-0.1,2.3-0.2c1.5-0.2,2.9-0.4,4-0.7c1.2-0.3,2.1-0.6,2.8-0.9c0.7-0.3,1.1-0.5,1.1-0.5
				s-0.4-0.2-1.1-0.3c-0.7-0.2-1.7-0.4-2.8-0.6c-1.2-0.2-2.5-0.4-4-0.5c-1.4-0.1-3-0.2-4.5-0.3c-3.1-0.1-6.2,0.1-8.5,0.3
				c-1.2,0.1-2.2,0.3-2.9,0.4C17-152.7,16.6-152.5,16.6-152.5z"/>
		</g>
	</g>
	<g>
		<path fill="#E3EBEB" d="M-99.2-33.1c0,0,0.4-0.2,1-0.6c0.7-0.4,1.5-0.9,2.6-1.6c1-0.7,2.2-1.5,3.4-2.5c0.6-0.4,1.2-0.9,1.9-1.4
			c0.6-0.5,1.3-1,1.9-1.5c0.6-0.5,1.2-1,1.9-1.5c0.6-0.5,1.2-1,1.8-1.5c0.6-0.5,1.1-1,1.7-1.4c0.5-0.5,1-0.9,1.5-1.3
			c0.5-0.4,0.9-0.8,1.2-1.2c0.4-0.3,0.7-0.7,1-0.9c0.5-0.5,0.8-0.9,0.8-0.9s-0.4,0-1.2,0.2c-0.4,0.1-0.8,0.2-1.3,0.3
			c-0.5,0.1-1.1,0.3-1.7,0.5c-0.6,0.2-1.3,0.5-1.9,0.8c-0.7,0.3-1.4,0.7-2.1,1.1c-1.4,0.8-2.8,1.8-4.1,2.8c-2.7,2.1-4.9,4.7-6.3,6.9
			c-0.7,1.1-1.2,2-1.5,2.7C-99.1-33.5-99.2-33.1-99.2-33.1z"/>
	</g>
	<g>
		<path fill="#183029" d="M-12.8-75.9c0,0-10.7-25.2,2.1-45c-20.7,11.3-45-1.3-45-1.3c35-40.5,60.1-12.7,60.1-12.7
			S30.2-107.8-12.8-75.9z"/>
		<g>
			<path fill="#E3EBEB" d="M-31.3-125.1c0,0,0.4,0.2,1.1,0.4c0.7,0.2,1.7,0.5,2.9,0.7c1.2,0.2,2.6,0.4,4.1,0.4c1.5,0,3.1,0,4.7-0.2
				c0.8-0.1,1.6-0.2,2.4-0.4c0.8-0.1,1.5-0.3,2.3-0.5c0.7-0.2,1.4-0.4,2.1-0.7c0.7-0.2,1.3-0.5,1.8-0.7c1.1-0.5,2-1,2.6-1.4
				c0.6-0.4,1-0.6,1-0.6s-0.4-0.1-1.1-0.1c-0.4,0-0.8-0.1-1.3-0.1c-0.5,0-1,0-1.6,0c-1.2,0-2.6,0-4,0.2c-0.7,0-1.5,0.1-2.2,0.2
				c-0.8,0.1-1.5,0.2-2.3,0.2c-3.1,0.4-6.1,0.9-8.4,1.5c-1.2,0.3-2.1,0.6-2.8,0.8C-30.9-125.2-31.3-125.1-31.3-125.1z"/>
		</g>
		<g>
			<path fill="#E3EBEB" d="M-7.1-98c0,0,0.2-0.4,0.5-1c0.3-0.6,0.7-1.6,1.1-2.7c0.9-2.2,1.8-5.1,2.6-8c0.2-0.7,0.4-1.5,0.6-2.2
				c0.2-0.7,0.3-1.4,0.5-2.2c0.3-1.4,0.5-2.7,0.7-3.9c0.2-1.2,0.3-2.2,0.3-2.9c0.1-0.7,0-1.1,0-1.1s-0.3,0.3-0.8,0.8
				c-0.5,0.5-1.1,1.3-1.8,2.4c-1.3,2-2.6,5-3.5,8c-0.4,1.5-0.7,3.1-0.9,4.6c-0.2,1.5-0.2,2.9-0.1,4.1c0.1,1.2,0.2,2.2,0.4,2.9
				C-7.2-98.4-7.1-98-7.1-98z"/>
		</g>
	</g>
	<g>
		<path fill="#E3EBEB" d="M-61.8-20.9c0,0,0.1-0.4,0.2-1.1c0.1-0.7,0.2-1.7,0.3-3c0.1-2.4-0.3-5.7-1.1-8.8c-0.2-0.8-0.4-1.5-0.7-2.3
			c-0.2-0.8-0.5-1.5-0.8-2.2c-0.6-1.4-1.2-2.7-1.8-3.7c-0.6-1.1-1.2-1.9-1.7-2.5c-0.5-0.6-0.8-0.9-0.8-0.9s0,0.4,0,1.2
			c0,0.7,0.1,1.7,0.2,2.9c0.2,1.2,0.4,2.6,0.6,4c0.3,1.4,0.6,3,1,4.5c0.4,1.5,0.8,3,1.3,4.4c0.5,1.4,0.9,2.7,1.4,3.8
			c0.5,1.1,0.9,2,1.2,2.7C-62-21.2-61.8-20.9-61.8-20.9z"/>
	</g>
	<g>
		<path fill="#183029" d="M-61.9,43.7c0,0-25.7-9.4-31.4-32.3c-5.9,22.8-31.7,32-31.7,32C-130.7-9.7-93.3-9.1-93.3-9.1
			S-55.8-9.4-61.9,43.7z"/>
		<g>
			<path fill="#E3EBEB" d="M-114,22.7c0,0,0.3-0.3,0.9-0.8c0.6-0.5,1.3-1.3,2.2-2.1c0.9-0.9,1.9-1.9,2.9-3c1-1.1,2.1-2.3,3.3-3.4
				c0.5-0.6,1.1-1.2,1.6-1.7c0.5-0.6,1.1-1.1,1.6-1.7c0.5-0.6,1-1.1,1.5-1.6c0.5-0.5,0.9-1,1.3-1.5c0.4-0.5,0.8-0.9,1.1-1.3
				c0.4-0.4,0.6-0.7,0.9-1c0.5-0.6,0.7-1,0.7-1s-0.4,0.1-1.2,0.3c-0.7,0.2-1.8,0.5-3,1.1c-0.6,0.3-1.2,0.6-1.9,1
				c-0.6,0.4-1.3,0.8-2,1.3c-0.6,0.5-1.3,1-1.9,1.6c-0.6,0.6-1.3,1.2-1.9,1.8c-0.6,0.6-1.2,1.3-1.7,2c-0.5,0.7-1,1.4-1.5,2
				c-0.9,1.4-1.6,2.7-2.1,3.9c-0.3,0.6-0.4,1.2-0.6,1.7c-0.2,0.5-0.3,1-0.4,1.3C-113.9,22.3-114,22.7-114,22.7z"/>
		</g>
		<g>
			<path fill="#E3EBEB" d="M-71,25.8c0,0,0.1-0.4,0.1-1.2c0-0.7-0.1-1.8-0.3-3c-0.2-1.2-0.6-2.6-1.1-4.1c-0.3-0.7-0.6-1.5-0.9-2.2
				c-0.4-0.7-0.8-1.5-1.2-2.2c-0.5-0.7-0.9-1.4-1.4-2.1c-0.5-0.7-1-1.3-1.6-1.9c-0.6-0.6-1.1-1.1-1.7-1.6c-0.6-0.4-1.1-0.9-1.7-1.2
				c-0.5-0.3-1.1-0.6-1.5-0.9c-0.5-0.2-0.9-0.4-1.2-0.5c-0.7-0.3-1.1-0.4-1.1-0.4s0.2,0.4,0.6,1c0.2,0.3,0.5,0.7,0.7,1
				c0.3,0.4,0.6,0.9,0.9,1.4c0.4,0.5,0.7,1,1,1.6c0.4,0.5,0.7,1.1,1.1,1.7c0.4,0.6,0.8,1.2,1.2,1.9c0.4,0.6,0.8,1.3,1.2,1.9
				c0.8,1.3,1.6,2.6,2.4,3.9c0.8,1.2,1.5,2.4,2.2,3.4c0.7,1,1.3,1.8,1.7,2.4C-71.3,25.4-71,25.8-71,25.8z"/>
		</g>
	</g>
	<g>
		<path fill="#183029" d="M-50,91.8c0,0-27.2-2.8-38.4-23.6c-0.1,23.6-22.9,38.8-22.9,38.8c-18.5-50.2,17.9-58.7,17.9-58.7
			S-57.2,38.8-50,91.8z"/>
		<g>
			<path fill="#E3EBEB" d="M-106.6,84.8c0,0,0.2-0.4,0.6-1.1c0.4-0.7,0.8-1.6,1.4-2.7c0.5-1.1,1.2-2.4,1.8-3.8
				c0.6-1.4,1.3-2.8,2-4.3c0.3-0.7,0.7-1.4,1-2.2c0.3-0.7,0.7-1.4,1-2.1c0.3-0.7,0.6-1.3,0.9-2c0.3-0.7,0.6-1.3,0.8-1.8
				c0.2-0.6,0.5-1.1,0.7-1.6c0.2-0.5,0.4-0.9,0.5-1.2c0.3-0.7,0.4-1.1,0.4-1.1s-0.4,0.2-1,0.6c-0.6,0.4-1.5,1.1-2.4,2
				c-0.5,0.4-1,1-1.4,1.5c-0.5,0.6-1,1.2-1.4,1.8c-0.4,0.7-0.9,1.4-1.3,2.1c-0.4,0.7-0.8,1.5-1.2,2.3c-0.4,0.8-0.7,1.6-1,2.4
				c-0.3,0.8-0.5,1.6-0.7,2.4c-0.4,1.6-0.6,3.1-0.7,4.4c-0.1,0.6,0,1.3,0,1.8c0,0.5,0.1,1,0.1,1.4
				C-106.7,84.4-106.6,84.8-106.6,84.8z"/>
		</g>
		<g>
			<path fill="#E3EBEB" d="M-64.9,76.2c0,0-0.1-0.4-0.3-1.1c-0.3-0.7-0.7-1.7-1.3-2.8c-0.6-1.1-1.4-2.3-2.4-3.5
				c-0.5-0.6-1.1-1.2-1.6-1.8c-0.6-0.6-1.2-1.1-1.9-1.7c-0.7-0.5-1.3-1-2-1.5c-0.7-0.4-1.4-0.9-2.1-1.2c-0.7-0.3-1.4-0.7-2.1-0.9
				c-0.7-0.2-1.3-0.5-2-0.6c-0.6-0.1-1.2-0.2-1.7-0.3c-0.5-0.1-1-0.1-1.3-0.1c-0.7,0-1.2,0-1.2,0s0.3,0.3,0.9,0.7
				c0.3,0.2,0.6,0.5,1,0.7c0.4,0.3,0.8,0.6,1.3,1c0.5,0.3,1,0.8,1.5,1.1c0.5,0.4,1.1,0.8,1.6,1.3c0.6,0.4,1.1,0.9,1.7,1.4
				c0.6,0.4,1.2,1,1.8,1.4c1.2,1,2.4,1.9,3.5,2.8c1.1,0.9,2.2,1.8,3.2,2.5c1,0.7,1.8,1.3,2.4,1.7C-65.3,76-64.9,76.2-64.9,76.2z"/>
		</g>
	</g>
	<g>
		<path fill="#183029" d="M-22.9,130.6c0,0-26.2,7.9-44.5-7c9,21.8-6.2,44.6-6.2,44.6c-36.4-39.2-6.1-61.1-6.1-61.1
			S-49.8,84.4-22.9,130.6z"/>
		<g>
			<path fill="#E3EBEB" d="M-75.4,146.3c0,0,0-0.5,0-1.2c0-0.8,0-1.8,0-3.1c0-1.2-0.1-2.7-0.1-4.2c-0.1-1.5-0.1-3.1-0.2-4.7
				c-0.1-0.8-0.1-1.6-0.1-2.4c0-0.8-0.1-1.6-0.1-2.3c-0.1-0.8-0.1-1.5-0.1-2.2c-0.1-0.7-0.1-1.4-0.1-2c-0.1-0.6-0.1-1.2-0.1-1.7
				c0-0.5-0.1-1-0.1-1.3c-0.1-0.8-0.2-1.2-0.2-1.2s-0.3,0.4-0.6,1c-0.4,0.7-0.9,1.7-1.3,2.9c-0.2,0.6-0.4,1.3-0.6,2
				c-0.2,0.7-0.4,1.5-0.4,2.3c-0.1,0.8-0.2,1.6-0.2,2.5c0,0.8-0.1,1.7,0,2.6c0,0.9,0.1,1.7,0.2,2.6c0.1,0.8,0.3,1.7,0.4,2.5
				c0.4,1.6,0.8,3,1.4,4.2c0.3,0.6,0.5,1.1,0.8,1.6c0.2,0.5,0.5,0.9,0.7,1.2C-75.7,145.9-75.4,146.3-75.4,146.3z"/>
		</g>
		<g>
			<path fill="#E3EBEB" d="M-42.3,119.6c0,0-0.3-0.3-0.8-0.8c-0.5-0.5-1.4-1.2-2.4-1.9c-1-0.7-2.3-1.4-3.8-2
				c-0.7-0.3-1.5-0.6-2.3-0.8c-0.8-0.2-1.6-0.4-2.4-0.6c-0.8-0.1-1.6-0.3-2.5-0.4c-0.8-0.1-1.6-0.1-2.4-0.1c-0.8,0-1.6,0-2.3,0.1
				c-0.7,0.1-1.4,0.2-2,0.4c-0.6,0.2-1.2,0.3-1.7,0.5c-0.5,0.2-0.9,0.4-1.2,0.6c-0.7,0.3-1,0.6-1,0.6s0.4,0.1,1.2,0.2
				c0.4,0.1,0.8,0.1,1.3,0.2c0.5,0.1,1,0.2,1.6,0.3c0.6,0.1,1.2,0.2,1.9,0.3c0.7,0.1,1.3,0.3,2,0.4c0.7,0.1,1.4,0.3,2.2,0.4
				c0.7,0.1,1.5,0.3,2.2,0.5c1.5,0.3,3,0.6,4.4,0.9c1.4,0.3,2.8,0.6,4,0.8c1.2,0.2,2.2,0.3,2.9,0.4
				C-42.7,119.5-42.3,119.6-42.3,119.6z"/>
		</g>
	</g>
	<g>
		<path fill="#183029" d="M20.2,169.2c0,0-24.2,12.9-45,1.8c13,19.7,2.6,45,2.6,45C-65.5,184.6-40,157.3-40,157.3
			S-15.3,129.2,20.2,169.2z"/>
		<g>
			<path fill="#E3EBEB" d="M-32.6,193.2c0,0,0-0.5-0.1-1.2c-0.1-0.8-0.2-1.8-0.3-3c-0.2-1.2-0.3-2.7-0.6-4.2
				c-0.2-1.5-0.5-3.1-0.7-4.7c-0.2-0.8-0.2-1.6-0.4-2.4c-0.1-0.8-0.2-1.6-0.4-2.3c-0.1-0.7-0.2-1.5-0.3-2.2c-0.1-0.7-0.2-1.4-0.3-2
				c-0.1-0.6-0.2-1.2-0.3-1.7c-0.1-0.5-0.2-1-0.3-1.3c-0.2-0.7-0.3-1.2-0.3-1.2s-0.2,0.4-0.5,1.1c-0.3,0.7-0.7,1.7-0.9,3
				c-0.1,0.6-0.3,1.3-0.4,2.1c-0.1,0.7-0.2,1.5-0.2,2.3c0,0.8-0.1,1.7,0,2.5c0.1,0.8,0.1,1.7,0.3,2.6c0.1,0.9,0.3,1.7,0.5,2.5
				c0.2,0.8,0.4,1.6,0.7,2.4c0.5,1.5,1.2,2.9,1.8,4c0.3,0.6,0.6,1.1,0.9,1.5c0.3,0.4,0.6,0.8,0.8,1.1
				C-32.9,192.9-32.6,193.2-32.6,193.2z"/>
		</g>
		<g>
			<path fill="#E3EBEB" d="M-2.4,163.2c0,0-0.3-0.3-0.9-0.8c-0.6-0.4-1.5-1-2.6-1.6c-1.1-0.6-2.5-1.1-4-1.6
				c-0.7-0.2-1.5-0.4-2.3-0.6c-0.8-0.2-1.6-0.3-2.5-0.4c-0.8,0-1.7-0.2-2.5-0.1c-0.8,0-1.6,0-2.4,0.1c-0.8,0.1-1.5,0.2-2.3,0.4
				c-0.7,0.2-1.4,0.3-2,0.6c-0.6,0.2-1.1,0.5-1.6,0.7c-0.5,0.2-0.8,0.5-1.2,0.7c-0.6,0.4-1,0.7-1,0.7s0.4,0.1,1.2,0.1
				c0.4,0,0.8,0,1.3,0c0.5,0,1,0.1,1.6,0.1c0.6,0,1.2,0.1,1.9,0.1c0.7,0,1.4,0.1,2.1,0.2c0.7,0,1.5,0.1,2.2,0.2
				c0.7,0,1.5,0.2,2.3,0.2c1.5,0.2,3.1,0.3,4.5,0.4c1.5,0.1,2.8,0.3,4,0.3c1.2,0.1,2.2,0.1,3,0.1C-2.9,163.2-2.4,163.2-2.4,163.2z"
				/>
		</g>
	</g>
	<g>
		<path fill="#183029" d="M-39.8-41.6c0,0-16.2-22-8.3-44.3c-17.5,15.8-44.1,9.2-44.1,9.2c24.7-47.4,55.5-26.2,55.5-26.2
			S-5.3-82.6-39.8-41.6z"/>
		<g>
			<path fill="#E3EBEB" d="M-73.2-85.4c0,0,0.4,0.2,1.2,0.3c0.8,0.1,1.8,0.3,3.1,0.3c1.3,0,2.8-0.1,4.4-0.3c0.8-0.1,1.6-0.3,2.4-0.5
				c0.8-0.2,1.6-0.5,2.5-0.8c0.8-0.3,1.6-0.6,2.4-1c0.8-0.3,1.5-0.8,2.2-1.2c0.7-0.4,1.3-0.9,2-1.3c0.6-0.4,1.2-0.9,1.6-1.3
				c1-0.8,1.7-1.7,2.2-2.3c0.5-0.6,0.7-1,0.7-1s-0.4,0.1-1.2,0.3c-0.4,0.1-0.8,0.2-1.3,0.4c-0.5,0.2-1.1,0.3-1.6,0.5
				c-0.6,0.2-1.2,0.4-1.9,0.6c-0.7,0.2-1.3,0.5-2.1,0.7c-0.7,0.3-1.4,0.5-2.2,0.8c-0.8,0.2-1.5,0.6-2.3,0.8c-1.5,0.6-3,1.1-4.4,1.6
				c-1.4,0.5-2.8,1-3.9,1.5c-1.2,0.5-2.1,0.9-2.8,1.2C-72.8-85.6-73.2-85.4-73.2-85.4z"/>
		</g>
		<g>
			<path fill="#E3EBEB" d="M-38.8-65.3c0,0,0.1-0.4,0.3-1.1c0.2-0.7,0.3-1.7,0.5-2.8c0.3-2.3,0.5-5.4,0.5-8.4c0-0.8,0-1.5-0.1-2.3
				c0-0.7-0.1-1.5-0.1-2.2c-0.1-1.4-0.3-2.8-0.4-3.9c-0.2-1.2-0.4-2.1-0.5-2.8c-0.2-0.7-0.3-1.1-0.3-1.1s-0.2,0.4-0.5,1
				c-0.3,0.7-0.7,1.6-1,2.7c-0.7,2.3-1.1,5.4-1.1,8.6c0,1.6,0.1,3.1,0.4,4.6c0.2,1.5,0.5,2.8,0.9,4c0.3,1.1,0.7,2.1,1,2.7
				C-39-65.6-38.8-65.3-38.8-65.3z"/>
		</g>
	</g>
	<g>
		<path fill="#E3EBEB" d="M39.5,211.7c0,0-0.4-0.3-1.1-0.7c-0.7-0.5-1.7-1-2.9-1.8c-2.3-1.4-5.4-3.2-8.6-5c-0.8-0.4-1.5-0.9-2.3-1.4
			c-0.8-0.5-1.5-0.9-2.2-1.3c-0.7-0.4-1.4-0.9-2.1-1.2c-0.7-0.4-1.3-0.8-1.9-1.1c-0.6-0.3-1.2-0.7-1.7-0.9c-0.5-0.3-0.9-0.5-1.3-0.7
			c-0.7-0.4-1.2-0.6-1.2-0.6s0.2,0.4,0.6,1.2c0.4,0.7,1.1,1.8,2,2.9c0.5,0.6,1,1.2,1.5,1.7c0.6,0.6,1.2,1.2,1.9,1.8
			c0.7,0.6,1.4,1.2,2.2,1.7c0.8,0.5,1.6,1.1,2.4,1.5c0.8,0.5,1.7,0.9,2.5,1.3c0.8,0.4,1.7,0.8,2.5,1.1c1.7,0.6,3.3,1.1,4.7,1.3
			c0.7,0.1,1.4,0.2,1.9,0.3c0.6,0.1,1.1,0.1,1.5,0.1C39,211.8,39.5,211.7,39.5,211.7z"/>
	</g>
</symbol>
<g id="Layer_3">
</g>
<g id="Layer_1">
	<g id="Header">
	</g>
	<g>
		<g>
			<g>
				<path d="M182.6,4H23.4c-4.4,0-7.9,3.5-7.9,7.9v38.3c0,4.4,3.5,7.9,7.9,7.9h159.3c4.4,0,7.9-3.5,7.9-7.9V11.9
					C190.6,7.5,187,4,182.6,4z"/>
				<linearGradient id="SVGID_2_" gradientUnits="userSpaceOnUse" x1="103.0011" y1="58.0918" x2="103.0011" y2="3.9758">
					<stop  offset="0" style="stop-color:#000000"/>
					<stop  offset="1" style="stop-color:#000000;stop-opacity:0"/>
					<a:midPointStop  offset="0" style="stop-color:#000000"/>
					<a:midPointStop  offset="0.4634" style="stop-color:#000000"/>
					<a:midPointStop  offset="1" style="stop-color:#000000;stop-opacity:0"/>
				</linearGradient>
				<path opacity="0.15" fill="url(#SVGID_2_)" d="M182.6,4H23.4c-4.4,0-7.9,3.5-7.9,7.9v38.3c0,4.4,3.5,7.9,7.9,7.9h159.3
					c4.4,0,7.9-3.5,7.9-7.9V11.9C190.6,7.5,187,4,182.6,4z"/>
			</g>
			<g>
				<g id="PLAY_3_">
					
						<linearGradient id="SVGID_4_" gradientUnits="userSpaceOnUse" x1="-2749.5901" y1="-2134.5103" x2="-2749.5901" y2="-2137.5642" gradientTransform="matrix(12 0 0 -12 33035.668 -25599.7305)">
						<stop  offset="0" style="stop-color:#267CAF"/>
						<stop  offset="0.2863" style="stop-color:#4A92B4"/>
						<stop  offset="0.767" style="stop-color:#79BCBA"/>
						<stop  offset="1" style="stop-color:#88CEBC"/>
						<a:midPointStop  offset="0" style="stop-color:#267CAF"/>
						<a:midPointStop  offset="0.5" style="stop-color:#267CAF"/>
						<a:midPointStop  offset="0.2863" style="stop-color:#4A92B4"/>
						<a:midPointStop  offset="0.5" style="stop-color:#4A92B4"/>
						<a:midPointStop  offset="0.767" style="stop-color:#79BCBA"/>
						<a:midPointStop  offset="0.5" style="stop-color:#79BCBA"/>
						<a:midPointStop  offset="1" style="stop-color:#88CEBC"/>
					</linearGradient>
					<polygon fill="url(#SVGID_4_)" points="31.3,14.4 31.3,32.7 31.3,51 49.8,32.7 					"/>
					<path fill="none" d="M54.8,27.8l-7.5-4.3c0,0-13.6-7.8-14.4-8.3c-0.8-0.5-1.6-0.2-1.6,0.8c0,1.6,0,16.8,0,16.8s0,16.4,0,17.1
						c0,0.7,0.6,1,1.3,0.6c0.7-0.4,14.7-8.5,14.7-8.5l7.5-4.3c0,0,6.3-3.7,7.2-4.1c0.8-0.5,0.8-1.2,0.1-1.5
						C61.3,31.6,54.8,27.8,54.8,27.8z"/>
					
						<linearGradient id="SVGID_6_" gradientUnits="userSpaceOnUse" x1="-2750.3601" y1="-2135.2683" x2="-2748.4065" y2="-2135.2683" gradientTransform="matrix(12 0 0 -12 33035.668 -25599.7305)">
						<stop  offset="0" style="stop-color:#54C0AC"/>
						<stop  offset="1" style="stop-color:#DDE79A"/>
						<a:midPointStop  offset="0" style="stop-color:#54C0AC"/>
						<a:midPointStop  offset="0.5" style="stop-color:#54C0AC"/>
						<a:midPointStop  offset="1" style="stop-color:#DDE79A"/>
					</linearGradient>
					<polygon fill="url(#SVGID_6_)" points="54.8,27.8 47.3,23.5 31.3,14.3 31.3,14.4 49.8,32.7 					"/>
					<path fill="none" d="M54.8,27.8l-7.5-4.3c0,0-13.6-7.8-14.4-8.3c-0.8-0.5-1.6-0.2-1.6,0.8c0,1.6,0,16.8,0,16.8s0,16.4,0,17.1
						c0,0.7,0.6,1,1.3,0.6c0.7-0.4,14.7-8.5,14.7-8.5l7.5-4.3c0,0,6.3-3.7,7.2-4.1c0.8-0.5,0.8-1.2,0.1-1.5
						C61.3,31.6,54.8,27.8,54.8,27.8z"/>
					
						<linearGradient id="SVGID_7_" gradientUnits="userSpaceOnUse" x1="-2749.3833" y1="-2136.0374" x2="-2749.3833" y2="-2137.5754" gradientTransform="matrix(12 0 0 -12 33035.668 -25599.7305)">
						<stop  offset="0" style="stop-color:#EB413D"/>
						<stop  offset="0.1668" style="stop-color:#D94452"/>
						<stop  offset="0.5748" style="stop-color:#AF487A"/>
						<stop  offset="0.8619" style="stop-color:#954B92"/>
						<stop  offset="1" style="stop-color:#894A9C"/>
						<a:midPointStop  offset="0" style="stop-color:#EB413D"/>
						<a:midPointStop  offset="0.5" style="stop-color:#EB413D"/>
						<a:midPointStop  offset="0.1668" style="stop-color:#D94452"/>
						<a:midPointStop  offset="0.5" style="stop-color:#D94452"/>
						<a:midPointStop  offset="0.5748" style="stop-color:#AF487A"/>
						<a:midPointStop  offset="0.5" style="stop-color:#AF487A"/>
						<a:midPointStop  offset="0.8619" style="stop-color:#954B92"/>
						<a:midPointStop  offset="0.5" style="stop-color:#954B92"/>
						<a:midPointStop  offset="1" style="stop-color:#894A9C"/>
					</linearGradient>
					<polygon fill="url(#SVGID_7_)" points="31.3,51 31.3,51.2 47.3,41.9 54.8,37.6 49.8,32.7 					"/>
					<path fill="none" d="M54.8,27.8l-7.5-4.3c0,0-13.6-7.8-14.4-8.3c-0.8-0.5-1.6-0.2-1.6,0.8c0,1.6,0,16.8,0,16.8s0,16.4,0,17.1
						c0,0.7,0.6,1,1.3,0.6c0.7-0.4,14.7-8.5,14.7-8.5l7.5-4.3c0,0,6.3-3.7,7.2-4.1c0.8-0.5,0.8-1.2,0.1-1.5
						C61.3,31.6,54.8,27.8,54.8,27.8z"/>
					
						<linearGradient id="SVGID_9_" gradientUnits="userSpaceOnUse" x1="-2748.2583" y1="-2135.6272" x2="-2748.2583" y2="-2136.4475" gradientTransform="matrix(12 0 0 -12 33035.668 -25599.7305)">
						<stop  offset="0" style="stop-color:#F48879"/>
						<stop  offset="0.1194" style="stop-color:#F5907A"/>
						<stop  offset="0.7128" style="stop-color:#FBB777"/>
						<stop  offset="1" style="stop-color:#FDC874"/>
						<a:midPointStop  offset="0" style="stop-color:#F48879"/>
						<a:midPointStop  offset="0.5" style="stop-color:#F48879"/>
						<a:midPointStop  offset="0.1194" style="stop-color:#F5907A"/>
						<a:midPointStop  offset="0.5" style="stop-color:#F5907A"/>
						<a:midPointStop  offset="0.7128" style="stop-color:#FBB777"/>
						<a:midPointStop  offset="0.5" style="stop-color:#FBB777"/>
						<a:midPointStop  offset="1" style="stop-color:#FDC874"/>
					</linearGradient>
					<polygon fill="url(#SVGID_9_)" points="54.8,27.8 49.8,32.7 54.8,37.6 63.3,32.7 					"/>
					<path fill="none" d="M54.8,27.8l-7.5-4.3c0,0-13.6-7.8-14.4-8.3c-0.8-0.5-1.6-0.2-1.6,0.8c0,1.6,0,16.8,0,16.8s0,16.4,0,17.1
						c0,0.7,0.6,1,1.3,0.6c0.7-0.4,14.7-8.5,14.7-8.5l7.5-4.3c0,0,6.3-3.7,7.2-4.1c0.8-0.5,0.8-1.2,0.1-1.5
						C61.3,31.6,54.8,27.8,54.8,27.8z"/>
				</g>
				<path fill="#F7F8F9" d="M147.7,39.9c-0.7,0-1.3-0.1-1.9-0.4c-0.6-0.3-1.1-0.7-1.4-1.2h-0.1c0.1,0.6,0.1,1.2,0.1,1.8v4.4h-1.6V29
					h1.3l0.2,1.5h0.1c0.4-0.6,0.9-1,1.4-1.3s1.2-0.4,1.9-0.4c1.4,0,2.5,0.5,3.3,1.4c0.8,1,1.2,2.3,1.2,4.1c0,1.8-0.4,3.1-1.2,4.1
					C150.2,39.4,149.1,39.9,147.7,39.9z M147.5,30.2c-1.1,0-1.9,0.3-2.4,0.9c-0.5,0.6-0.7,1.6-0.7,2.9v0.4c0,1.5,0.2,2.6,0.7,3.2
					s1.3,1,2.4,1c0.9,0,1.6-0.4,2.2-1.1c0.5-0.7,0.8-1.8,0.8-3.1c0-1.3-0.3-2.3-0.8-3.1C149.1,30.6,148.4,30.2,147.5,30.2z"/>
				<path fill="#F7F8F9" d="M155.8,39.7h-1.6V24.6h1.6V39.7z"/>
				<path fill="#F7F8F9" d="M165.1,39.7l-0.3-1.5h-0.1c-0.5,0.7-1.1,1.1-1.6,1.4c-0.5,0.2-1.2,0.4-2,0.4c-1.1,0-1.9-0.3-2.5-0.8
					c-0.6-0.5-0.9-1.3-0.9-2.3c0-2.2,1.7-3.3,5.2-3.4l1.8-0.1v-0.7c0-0.8-0.2-1.5-0.5-1.9c-0.4-0.4-0.9-0.6-1.7-0.6
					c-0.9,0-1.9,0.3-3,0.8l-0.5-1.2c0.5-0.3,1.1-0.5,1.7-0.7c0.6-0.2,1.3-0.2,1.9-0.2c1.3,0,2.2,0.3,2.8,0.8
					c0.6,0.6,0.9,1.5,0.9,2.7v7.3L165.1,39.7L165.1,39.7z M161.5,38.5c1,0,1.8-0.3,2.4-0.8c0.6-0.6,0.9-1.3,0.9-2.3v-1l-1.6,0.1
					c-1.3,0-2.2,0.2-2.8,0.6c-0.6,0.4-0.9,0.9-0.9,1.6c0,0.6,0.2,1,0.5,1.3C160.4,38.4,160.8,38.5,161.5,38.5z"/>
				<path fill="#F7F8F9" d="M167.3,29h1.7l2.3,6.1c0.5,1.4,0.8,2.4,1,3h0.1c0.1-0.3,0.3-0.9,0.5-1.7c0.3-0.8,1.1-3.3,2.6-7.4h1.7
					l-4.6,12.1c-0.5,1.2-1,2.1-1.6,2.6c-0.6,0.5-1.4,0.8-2.2,0.8c-0.5,0-1-0.1-1.5-0.2V43c0.4,0.1,0.8,0.1,1.2,0.1
					c1.1,0,1.9-0.6,2.4-1.9l0.6-1.5L167.3,29z"/>
				<path fill="#F7F8F9" d="M117.8,30c0.5,0.4,1.6,1.3,1.6,3c0,1.6-0.9,2.4-1.9,3.2c-0.3,0.3-0.6,0.6-0.6,1.1c0,0.5,0.3,0.8,0.6,1
					l0.8,0.6c1,0.8,1.9,1.6,1.9,3.1c0,2.1-2,4.2-5.9,4.2c-3.2,0-4.8-1.5-4.8-3.2c0-0.8,0.4-1.9,1.7-2.7c1.4-0.8,3.3-1,4.3-1
					c-0.3-0.4-0.7-0.8-0.7-1.5c0-0.4,0.1-0.6,0.2-0.9c-0.2,0-0.5,0-0.7,0c-2.4,0-3.7-1.8-3.7-3.5c0-1,0.5-2.2,1.4-3
					c1.3-1,2.8-1.2,4-1.2h4.6l-1.4,0.8L117.8,30L117.8,30z M116.2,39.9c-0.2,0-0.3,0-0.5,0c-0.2,0-1.4,0-2.3,0.4
					c-0.5,0.2-1.9,0.7-1.9,2.3c0,1.6,1.5,2.7,3.9,2.7c2.1,0,3.3-1,3.3-2.4C118.6,41.7,117.9,41.1,116.2,39.9z M116.8,35.7
					c0.5-0.5,0.6-1.2,0.6-1.6c0-1.6-1-4.1-2.8-4.1c-0.6,0-1.2,0.3-1.6,0.7c-0.4,0.5-0.5,1.1-0.5,1.6c0,1.5,0.9,4,2.8,4
					C115.9,36.3,116.5,36,116.8,35.7z"/>
				<path fill="#F7F8F9" d="M103.8,39.6c-3.5,0-5.4-2.8-5.4-5.3c0-2.9,2.4-5.4,5.8-5.4c3.3,0,5.3,2.6,5.3,5.3
					C109.4,36.8,107.4,39.6,103.8,39.6z M106.5,37.8c0.5-0.7,0.7-1.6,0.7-2.5c0-2-0.9-5.7-3.7-5.7c-0.7,0-1.5,0.3-2,0.8
					c-0.9,0.8-1,1.8-1,2.7c0,2.2,1.1,5.8,3.8,5.8C105.1,38.9,106,38.5,106.5,37.8z"/>
				<path fill="#F7F8F9" d="M91.7,39.6c-3.5,0-5.4-2.8-5.4-5.3c0-2.9,2.4-5.4,5.8-5.4c3.3,0,5.3,2.6,5.3,5.3
					C97.3,36.8,95.3,39.6,91.7,39.6z M94.5,37.8c0.5-0.7,0.7-1.6,0.7-2.5c0-2-0.9-5.7-3.7-5.7c-0.7,0-1.5,0.3-2,0.8
					c-0.9,0.8-1,1.8-1,2.7c0,2.2,1.1,5.8,3.8,5.8C93.1,38.9,94,38.5,94.5,37.8z"/>
				<path fill="#F7F8F9" d="M84.6,39.2L81.4,40c-1.3,0.2-2.5,0.4-3.7,0.4c-6.2,0-8.5-4.5-8.5-8.1c0-4.3,3.3-8.4,9-8.4
					c1.2,0,2.4,0.2,3.4,0.5c1.7,0.5,2.5,1.1,3,1.4l-1.9,1.8l-0.8,0.2l0.6-0.9c-0.8-0.7-2.1-2.1-4.8-2.1c-3.5,0-6.2,2.7-6.2,6.6
					c0,4.2,3,8.2,7.9,8.2c1.4,0,2.2-0.3,2.8-0.6v-3.6l-3.4,0.2l1.8-1h4.7L84.8,35c-0.2,0.1-0.2,0.2-0.2,0.4c0,0.2,0,0.9,0,1.1
					L84.6,39.2L84.6,39.2z"/>
				<path fill="#F7F8F9" d="M124.9,38.6c-0.7-0.1-0.9-0.2-0.9-1.1v-0.2V24.8c0,0,0-0.1,0-0.1c0.1-0.8,0.3-0.9,1-1.3h-3.2l-1.7,0.8
					h1.7v0l0,0v13.1V38c0,0.4-0.1,0.5-0.6,1.2h4l0.8-0.5C125.6,38.6,125.2,38.6,124.9,38.6z"/>
				<path fill="#F7F8F9" d="M134,38.8c-0.2,0.1-0.5,0.3-0.7,0.4c-0.7,0.3-1.5,0.4-2.2,0.4c-0.7,0-1.8,0-3-0.9
					c-1.6-1.1-2.3-3-2.3-4.7c0-3.4,2.8-5.1,5.1-5.1c0.8,0,1.6,0.2,2.3,0.6c1.1,0.7,1.4,1.7,1.6,2.2l-5.2,2.1l-1.7,0.1
					c0.6,2.8,2.5,4.5,4.6,4.5c1.1,0,2-0.4,2.7-0.8L134,38.8z M131.9,32.2c0.4-0.2,0.6-0.3,0.6-0.6c0-0.9-1-1.9-2.2-1.9
					c-0.9,0-2.6,0.7-2.6,3.1c0,0.4,0,0.8,0.1,1.2L131.9,32.2z"/>
				<path fill="#F7F8F9" d="M136.1,29.1v1.5h-0.2v-1.5h-0.5v-0.2h1.1v0.2H136.1z"/>
				<path fill="#F7F8F9" d="M138.1,30.5V29h0l-0.5,1.5h-0.1l-0.5-1.5h0v1.5h-0.2v-1.6h0.3l0.4,1.3h0l0.4-1.3h0.3v1.6H138.1z"/>
				<path fill="#F7F9FA" d="M73.6,19.5h-1.1c0-0.2-0.1-0.6-0.3-1.3h-1.6c-0.2,0.7-0.3,1.1-0.3,1.3h-1c0-0.1,0.3-0.8,0.8-2.2
					c0.5-1.4,0.8-2.2,0.8-2.3h1.3c0,0.1,0.2,0.9,0.7,2.3S73.6,19.4,73.6,19.5z M72,17.5c-0.4-1.2-0.6-1.8-0.6-1.9h-0.1
					c0,0.1-0.2,0.7-0.6,1.9H72z"/>
				<path fill="#F7F9FA" d="M78.1,19.5h-0.9c0-0.1-0.3-0.6-1-1.5c-0.7-1-1-1.6-1.1-2h-0.1c0.1,0.5,0.1,1,0.1,1.4c0,0.6,0,1.3,0,2.1
					h-0.9c0-0.7,0.1-1.5,0.1-2.4c0-0.8,0-1.6-0.1-2.2h1c0,0.1,0.3,0.6,0.9,1.5c0.6,0.9,1,1.5,1,1.9h0.1c-0.1-0.5-0.1-1-0.1-1.4
					c0-0.6,0-1.3,0-1.9h0.9c0,0.6,0,1.3,0,2.2C78,18,78,18.8,78.1,19.5z"/>
				<path fill="#F7F9FA" d="M83.1,17.1c0,0.7-0.2,1.2-0.6,1.7c-0.4,0.5-1,0.7-1.8,0.7c-0.3,0-0.8,0-1.4,0c0-0.7,0-1.5,0-2.4
					c0-0.8,0-1.6,0-2.2h0.6c0.1,0,0.2,0,0.4,0c0.2,0,0.3,0,0.4,0c0.8,0,1.4,0.2,1.8,0.6C82.9,16,83.1,16.5,83.1,17.1z M82.2,17.2
					c0-0.4-0.1-0.8-0.4-1.1c-0.3-0.3-0.7-0.5-1.2-0.5c-0.1,0-0.2,0-0.4,0c0,0.5,0,0.9,0,1.5c0,0.6,0,1.1,0,1.6c0.2,0,0.3,0,0.5,0
					c0.5,0,0.9-0.2,1.1-0.5C82,18.1,82.2,17.7,82.2,17.2z"/>
				<path fill="#F7F9FA" d="M87.7,19.5h-1c-0.3-0.8-0.5-1.3-0.6-1.5c-0.1-0.2-0.4-0.3-0.7-0.3c-0.1,0-0.3,0-0.4,0c0,0.6,0,1.2,0,1.8
					h-1c0-0.7,0-1.5,0-2.4c0-0.8,0-1.6,0-2.2h0.6c0.1,0,0.2,0,0.4,0c0.2,0,0.4,0,0.6,0c1.1,0,1.6,0.4,1.6,1.1c0,0.6-0.3,1-0.9,1.2
					v0.1c0.2,0.1,0.4,0.2,0.6,0.5C87.2,18.2,87.4,18.7,87.7,19.5z M86.4,16.3c0-0.5-0.3-0.7-0.9-0.7c-0.2,0-0.4,0-0.6,0
					c0,0.4,0,0.8,0,1.4c0.1,0,0.2,0,0.3,0C86.1,17.1,86.4,16.8,86.4,16.3z"/>
				<path fill="#F7F9FA" d="M92.7,17.2c0,0.7-0.2,1.3-0.7,1.8c-0.4,0.5-1,0.7-1.6,0.7c-0.6,0-1.1-0.2-1.5-0.6
					c-0.4-0.4-0.6-1-0.6-1.6c0-0.7,0.2-1.3,0.7-1.8c0.4-0.5,1-0.7,1.6-0.7c0.6,0,1.1,0.2,1.5,0.6C92.5,15.9,92.7,16.5,92.7,17.2z
					 M91.8,17.3c0-0.5-0.1-0.9-0.4-1.2c-0.2-0.3-0.6-0.5-0.9-0.5c-0.3,0-0.6,0.2-0.9,0.5c-0.2,0.3-0.4,0.7-0.4,1.2
					c0,0.5,0.1,0.9,0.4,1.2c0.2,0.3,0.6,0.5,0.9,0.5c0.3,0,0.6-0.2,0.9-0.5C91.6,18.1,91.8,17.7,91.8,17.3z"/>
				<path fill="#F7F9FA" d="M94.7,19.5h-1c0-0.7,0-1.5,0-2.4c0-0.8,0-1.6,0-2.2h1c0,0.6,0,1.3,0,2.2C94.6,18,94.7,18.8,94.7,19.5z"
					/>
				<path fill="#F7F9FA" d="M99.7,17.1c0,0.7-0.2,1.2-0.6,1.7c-0.4,0.5-1,0.7-1.8,0.7c-0.3,0-0.8,0-1.4,0c0-0.7,0-1.5,0-2.4
					c0-0.8,0-1.6,0-2.2h0.6c0.1,0,0.2,0,0.4,0c0.2,0,0.3,0,0.4,0c0.8,0,1.4,0.2,1.8,0.6C99.5,16,99.7,16.5,99.7,17.1z M98.8,17.2
					c0-0.4-0.1-0.8-0.4-1.1c-0.3-0.3-0.7-0.5-1.2-0.5c-0.1,0-0.2,0-0.4,0c0,0.5,0,0.9,0,1.5c0,0.6,0,1.1,0,1.6c0.2,0,0.3,0,0.5,0
					c0.5,0,0.9-0.2,1.1-0.5C98.7,18.1,98.8,17.7,98.8,17.2z"/>
				<path fill="#F7F9FA" d="M106.4,19.5h-1.1c0-0.2-0.1-0.6-0.3-1.3h-1.6c-0.2,0.7-0.3,1.1-0.3,1.3h-1c0-0.1,0.3-0.8,0.8-2.2
					s0.8-2.2,0.8-2.3h1.3c0,0.1,0.2,0.9,0.7,2.3S106.4,19.4,106.4,19.5z M104.8,17.5c-0.4-1.2-0.6-1.8-0.6-1.9h-0.1
					c0,0.1-0.2,0.7-0.6,1.9H104.8z"/>
				<path fill="#F7F9FA" d="M110.5,16.2c0,0.6-0.2,1-0.6,1.2s-0.9,0.4-1.5,0.4c-0.1,0-0.2,0-0.2,0c0,0.4,0,1,0,1.7h-1
					c0-0.7,0-1.5,0-2.4c0-0.8,0-1.6,0-2.2h0.6c0.1,0,0.3,0,0.5,0c0.2,0,0.5,0,0.6,0c0.4,0,0.8,0.1,1.1,0.3
					C110.3,15.5,110.5,15.8,110.5,16.2z M109.6,16.4c0-0.5-0.3-0.7-1-0.7c-0.2,0-0.3,0-0.5,0.1c0,0.4,0,0.9,0,1.5c0.1,0,0.1,0,0.2,0
					C109.1,17.2,109.6,16.9,109.6,16.4z"/>
				<path fill="#F7F9FA" d="M114.6,16.2c0,0.6-0.2,1-0.6,1.2c-0.4,0.3-0.9,0.4-1.5,0.4c-0.1,0-0.2,0-0.2,0c0,0.4,0,1,0,1.7h-1
					c0-0.7,0-1.5,0-2.4c0-0.8,0-1.6,0-2.2h0.6c0.1,0,0.3,0,0.5,0c0.2,0,0.5,0,0.6,0c0.4,0,0.8,0.1,1.1,0.3
					C114.5,15.5,114.6,15.8,114.6,16.2z M113.7,16.4c0-0.5-0.3-0.7-1-0.7c-0.2,0-0.3,0-0.5,0.1c0,0.4,0,0.9,0,1.5c0.1,0,0.1,0,0.2,0
					C113.3,17.2,113.7,16.9,113.7,16.4z"/>
				<path fill="#F7F9FA" d="M121.4,17.2c0,0.7-0.2,1.3-0.7,1.8s-1,0.7-1.6,0.7c-0.6,0-1.1-0.2-1.5-0.6c-0.4-0.4-0.6-1-0.6-1.6
					c0-0.7,0.2-1.3,0.7-1.8c0.4-0.5,1-0.7,1.6-0.7c0.6,0,1.1,0.2,1.5,0.6C121.2,15.9,121.4,16.5,121.4,17.2z M120.5,17.3
					c0-0.5-0.1-0.9-0.4-1.2c-0.2-0.3-0.6-0.5-0.9-0.5c-0.3,0-0.6,0.2-0.9,0.5c-0.2,0.3-0.4,0.7-0.4,1.2c0,0.5,0.1,0.9,0.4,1.2
					c0.2,0.3,0.6,0.5,0.9,0.5c0.3,0,0.6-0.2,0.9-0.5C120.4,18.1,120.5,17.7,120.5,17.3z"/>
				<path fill="#F7F9FA" d="M126.1,19.5h-0.9c0-0.1-0.3-0.6-1-1.5c-0.7-1-1-1.6-1.1-2h-0.1c0.1,0.5,0.1,1,0.1,1.4c0,0.6,0,1.3,0,2.1
					h-0.9c0-0.7,0.1-1.5,0.1-2.4c0-0.8,0-1.6-0.1-2.2h1c0,0.1,0.3,0.6,0.9,1.5c0.6,0.9,1,1.5,1,1.9h0.1c-0.1-0.5-0.1-1-0.1-1.4
					c0-0.6,0-1.3,0-1.9h0.9c0,0.6,0,1.3,0,2.2C126.1,18,126.1,18.8,126.1,19.5z"/>
			</g>
		</g>
	</g>
</g>
<g id="Layer_2" display="none">
</g>
</svg>
