<?xml version="1.0" encoding="UTF-8" standalone="no"?>
<svg width="41px" height="62px" viewBox="0 0 41 62" version="1.1" xmlns="http://www.w3.org/2000/svg" xmlns:xlink="http://www.w3.org/1999/xlink">
    <!-- Generator: Sketch 3.6.1 (26313) - http://www.bohemiancoding.com/sketch -->
    <title>icon-touch</title>
    <desc>Created with Sketch.</desc>
    <defs></defs>
    <g id="Welcome" stroke="none" stroke-width="1" fill="none" fill-rule="evenodd" stroke-linecap="round" stroke-linejoin="round">
        <g id="Desktop-HD" transform="translate(-1067.000000, -837.000000)" stroke-width="1.5">
            <g id="icon-touch" transform="translate(1068.000000, 838.000000)">
                <path d="M12.081037,40.0786667 L12.081037,14.6505185 C12.081037,12.8208889 13.5647407,11.3342222 15.3980741,11.3342222 C17.2284444,11.3342222 18.7143704,12.8208889 18.7143704,14.6505185 L18.7143704,24.6008889 L23.1365926,24.6008889 C24.3565926,24.6008889 25.3477037,25.592 25.3477037,26.812 L29.7699259,26.812 C30.9899259,26.812 31.981037,27.8031111 31.981037,29.0231111 L35.2980741,29.0231111 C37.1291852,29.0231111 38.6143704,30.5097778 38.6143704,32.3394074 L38.6143704,39.192 C38.6143704,41.2468148 36.786963,55.8105185 34.1921481,57.7675556 C30.2202963,60.7638519 18.5165926,60.3957037 14.2921481,57.7675556 C9.59881481,54.8475556 3.19140741,42.349037 1.8277037,40.1623704 C0.464,37.9764444 1.69288889,36.0957037 2.604,35.1823704 C3.584,34.2031111 5.15437037,34.1416296 6.20548148,35.0438519 L12.081037,40.0786667 L12.081037,40.0786667 Z" id="Stroke-11" stroke="#B5BCC2"></path>
                <path d="M25.3477778,26.8119259 L25.3477778,31.2341481" id="Stroke-13" stroke="#B5BCC2"></path>
                <path d="M18.7144444,23.4952593 L18.7144444,31.2345185" id="Stroke-15" stroke="#B5BCC2"></path>
                <path d="M31.9811852,29.023037 L31.9811852,33.4452593" id="Stroke-17" stroke="#B5BCC2"></path>
                <path d="M26.3553333,12.2034074 C26.3553333,5.60562963 20.559037,0.257481481 13.4094074,0.257481481 C6.25977778,0.257481481 0.464222222,5.60562963 0.464222222,12.2034074 C0.464222222,18.3871111 5.55533333,23.473037 12.0812593,24.0871111 L12.0812593,18.7004444 C8.62051852,18.1219259 5.99459259,15.333037 5.99459259,11.973037 C5.99459259,8.19451852 9.31459259,5.13081481 13.4094074,5.13081481 C17.504963,5.13081481 20.824963,8.19451852 20.824963,11.973037 C20.824963,13.8322963 20.0182963,15.516 18.7145926,16.7493333 L18.7145926,23.093037 C23.2160741,21.2219259 26.3553333,17.0552593 26.3553333,12.2034074 L26.3553333,12.2034074 Z" id="Stroke-19" stroke="#4CD3DC" stroke-dasharray="5,5"></path>
            </g>
        </g>
    </g>
</svg>