<?xml version="1.0" encoding="UTF-8" standalone="no"?>
<svg width="62px" height="62px" viewBox="0 0 62 62" version="1.1" xmlns="http://www.w3.org/2000/svg" xmlns:xlink="http://www.w3.org/1999/xlink">
    <!-- Generator: Sketch 3.6.1 (26313) - http://www.bohemiancoding.com/sketch -->
    <title>icon-sync</title>
    <desc>Created with Sketch.</desc>
    <defs></defs>
    <g id="Welcome" stroke="none" stroke-width="1" fill="none" fill-rule="evenodd">
        <g id="Desktop-HD" transform="translate(-693.000000, -837.000000)" stroke-width="1.5">
            <g id="icon-sync" transform="translate(694.000000, 838.000000)">
                <path d="M24.6867042,47.2133239 C14.7976901,44.1347324 10.104169,33.2003662 13.2436056,24.1099437 C15.4112113,17.8310704 20.8129014,13.5871268 26.939662,12.5958592" id="Stroke-1" stroke="#B5BCC2"></path>
                <path d="M34.5507042,13.0172113 C44.4980282,15.9005915 49.404507,26.7411549 46.4450704,35.8915775 C44.4008451,42.2118592 39.0828169,46.5614366 32.9771831,47.6718592" id="Stroke-3" stroke="#B5BCC2"></path>
                <path d="M32.3732958,12.8157465 L38.6572394,9.75997183 L36.1448451,18.3796901 L32.3732958,12.8157465 L32.3732958,12.8157465 Z" id="Stroke-5" stroke="#B5BCC2"></path>
                <path d="M26.6367042,47.0236056 L20.4076901,50.1900845 L22.7679718,41.5272676 L26.6367042,47.0236056 L26.6367042,47.0236056 Z" id="Stroke-7" stroke="#B5BCC2"></path>
                <path d="M59.4955775,30.077662 C59.4955775,46.3909014 46.2710704,59.6154085 29.957831,59.6154085 C13.6445915,59.6154085 0.420084507,46.3909014 0.420084507,30.077662 C0.420084507,13.7644225 13.6445915,0.539915493 29.957831,0.539915493 C46.2710704,0.539915493 59.4955775,13.7644225 59.4955775,30.077662 L59.4955775,30.077662 Z" id="Stroke-9" stroke="#4CD3DC" stroke-linecap="round" stroke-linejoin="round" stroke-dasharray="5,5"></path>
            </g>
        </g>
    </g>
</svg>