<?xml version="1.0" encoding="UTF-8" standalone="no"?>
<svg width="87px" height="51px" viewBox="0 0 87 51" version="1.1" xmlns="http://www.w3.org/2000/svg" xmlns:xlink="http://www.w3.org/1999/xlink">
    <!-- Generator: Sketch 3.6.1 (26313) - http://www.bohemiancoding.com/sketch -->
    <title>icon-phone-video</title>
    <desc>Created with Sketch.</desc>
    <defs></defs>
    <g id="Welcome" stroke="none" stroke-width="1" fill="none" fill-rule="evenodd">
        <g id="Desktop-HD" transform="translate(-300.000000, -627.000000)" stroke-width="1.5">
            <g id="icon-phone-video" transform="translate(301.000000, 627.000000)">
                <path d="M77.3536842,0.77754386 C81.3905263,0.77754386 84.6624561,3.33368421 84.6624561,6.49245614 L84.6624561,43.6407018 C84.6624561,46.7942105 81.3905263,49.3564912 77.3536842,49.3564912 L7.9177193,49.3564912 C3.88175439,49.3564912 0.608947368,46.7942105 0.608947368,43.6407018 L0.608947368,6.49245614 C0.608947368,3.33368421 3.88175439,0.77754386 7.9177193,0.77754386 L77.3536842,0.77754386 L77.3536842,0.77754386 Z" id="Stroke-45" stroke="#B5BCC2" stroke-linecap="round" stroke-linejoin="round"></path>
                <path d="M70.7438596,45.8938596 L13.0903509,45.8938596 L13.0903509,4.32017544 L70.7438596,4.32017544 L70.7438596,45.8938596 Z" id="Stroke-47" stroke="#B5BCC2" stroke-linecap="round" stroke-linejoin="round"></path>
                <path d="M77.7053509,21.7739474 C79.6027193,21.7739474 81.1369298,23.3292105 81.1369298,25.2511404 C81.1369298,27.1739474 79.6027193,28.7292105 77.7053509,28.7292105 C75.8079825,28.7292105 74.2737719,27.1739474 74.2737719,25.2511404 C74.2737719,23.3292105 75.8079825,21.7739474 77.7053509,21.7739474 L77.7053509,21.7739474 Z" id="Stroke-49" stroke="#B5BCC2" stroke-linejoin="round"></path>
                <path d="M7.59947368,15.8907018 L7.59947368,34.7161404" id="Stroke-50" stroke="#B5BCC2"></path>
                <path d="M58.7933333,25.3695614 C58.7933333,33.7353509 52.0091228,40.5169298 43.6459649,40.5169298 C35.2792982,40.5169298 28.4985965,33.7353509 28.4985965,25.3695614 C28.4985965,17.0028947 35.2792982,10.222193 43.6459649,10.222193 C52.0091228,10.222193 58.7933333,17.0028947 58.7933333,25.3695614 L58.7933333,25.3695614 Z" id="Stroke-51" stroke="#4CD3DC" stroke-linecap="round" stroke-linejoin="round"></path>
                <path d="M39.3308772,20.2811404 L48.984386,25.3372807 L39.3308772,31.3135965 L39.3308772,20.2811404 L39.3308772,20.2811404 Z" id="Stroke-52" stroke="#4CD3DC" stroke-linecap="round" stroke-linejoin="round"></path>
            </g>
        </g>
    </g>
</svg>