<?xml version="1.0" encoding="UTF-8" standalone="no"?>
<svg width="62px" height="72px" viewBox="0 0 62 72" version="1.1" xmlns="http://www.w3.org/2000/svg" xmlns:xlink="http://www.w3.org/1999/xlink">
    <!-- Generator: Sketch 3.6.1 (26313) - http://www.bohemiancoding.com/sketch -->
    <title>icon-phone-audio</title>
    <desc>Created with Sketch.</desc>
    <defs></defs>
    <g id="Welcome" stroke="none" stroke-width="1" fill="none" fill-rule="evenodd">
        <g id="Desktop-HD" transform="translate(-693.000000, -616.000000)" stroke-width="1.5">
            <g id="icon-phone-audio" transform="translate(694.000000, 617.000000)">
                <path d="M59.703875,53.4534135 C59.703875,56.2466827 57.9350288,58.5115865 55.748875,58.5115865 L30.041375,58.5115865 C27.8592596,58.5115865 26.086375,56.2466827 26.086375,53.4534135 L26.086375,5.40177885 C26.086375,2.60850962 27.8592596,0.344278846 30.041375,0.344278846 L55.748875,0.344278846 C57.9350288,0.344278846 59.703875,2.60850962 59.703875,5.40177885 L59.703875,53.4534135 L59.703875,53.4534135 Z" id="Stroke-53" stroke="#B5BCC2" stroke-linecap="round" stroke-linejoin="round"></path>
                <path d="M57.2519231,48.8795192 L28.4819231,48.8795192 L28.4819231,8.98153846 L57.2519231,8.98153846 L57.2519231,48.8795192 Z" id="Stroke-54" stroke="#B5BCC2" stroke-linecap="round" stroke-linejoin="round"></path>
                <path d="M45.1738269,53.6967981 C45.1738269,55.0092981 44.0975769,56.0714135 42.7675769,56.0714135 C41.4369038,56.0714135 40.3606538,55.0092981 40.3606538,53.6967981 C40.3606538,52.3842981 41.4369038,51.3221827 42.7675769,51.3221827 C44.0975769,51.3221827 45.1738269,52.3842981 45.1738269,53.6967981 L45.1738269,53.6967981 Z" id="Stroke-55" stroke="#B5BCC2" stroke-linejoin="round"></path>
                <path d="M49.2451346,5.18175 L36.2170577,5.18175" id="Stroke-56" stroke="#B5BCC2"></path>
                <path d="M34.7642885,58.5114519 L30.7514038,58.5114519" id="Stroke-57" stroke="#B5BCC2"></path>
                <path d="M18.9656923,26.0113269 C18.9656923,26.0113269 18.8209808,60.1639231 18.9656923,62.9073846 C19.1104038,65.6515192 21.4204038,67.1679615 22.7201154,68.17825 C24.0198269,69.1892115 25.8970385,69.4059423 27.9909808,69.4059423 C30.0849231,69.4059423 31.8100192,68.7840192 32.2838654,67.8174808 C32.7577115,66.8509423 32.7577115,64.9555577 32.7577115,64.9555577" id="Stroke-58" stroke="#4CD3DC" stroke-linecap="round" stroke-linejoin="round"></path>
                <path d="M6.40210577,20.1628269 C6.40210577,20.1628269 14.6432596,34.06725 16.1872981,34.6245577 C17.7313365,35.1811923 18.9011442,35.1811923 18.9011442,35.1811923" id="Stroke-59" stroke="#4CD3DC" stroke-linecap="round" stroke-linejoin="round"></path>
                <path d="M32.5234808,64.7944231 L32.5234808,64.7944231 C31.1584808,64.7944231 30.0411731,63.6771154 30.0411731,62.3121154 L30.0411731,60.9935577 L30.0411731,58.51125 L32.5234808,58.51125 L35.0057885,58.51125 L35.0057885,60.9935577 L35.0057885,62.3121154 C35.0057885,63.6771154 33.8884808,64.7944231 32.5234808,64.7944231 L32.5234808,64.7944231 Z" id="Stroke-60" stroke="#4CD3DC"></path>
                <path d="M4.70588462,7.655375 L4.94684615,7.60893269 C5.80569231,7.44335577 6.64434615,8.01075962 6.80925,8.86960577 L7.37598077,11.8075865 C8.66761538,10.9709519 9.52376923,9.51979808 9.52376923,7.86672115 C9.52376923,5.27335577 7.42175,3.17133654 4.82838462,3.17133654 C2.23501923,3.17133654 0.133,5.27335577 0.133,7.86672115 C0.133,10.1827788 1.81165385,12.1030673 4.01732692,12.4873942 L3.44521154,9.51777885 C3.27963462,8.65893269 3.84703846,7.82095192 4.70588462,7.655375 L4.70588462,7.655375 Z" id="Stroke-61" stroke="#4CD3DC"></path>
                <path d="M4.01752885,12.4875288 L4.95445192,17.3505096 C5.12002885,18.2093558 5.95800962,18.7767596 6.81685577,18.6111827 L7.05849038,18.5647404 C7.91733654,18.3991635 8.48474038,17.5611827 8.31916346,16.7023365 L7.37550962,11.8077212" id="Stroke-62" stroke="#4CD3DC"></path>
                <path d="M23.5970673,13.0358846 C23.5970673,10.4425192 21.4950481,8.3405 18.9016827,8.3405 C16.3083173,8.3405 14.205625,10.4425192 14.205625,13.0358846 C14.205625,15.0241538 15.4434135,16.7196346 17.1880288,17.4041538 L17.1880288,14.0145385 C17.1880288,13.1395385 17.9041827,12.4240577 18.7785096,12.4240577 L19.0241827,12.4240577 C19.8991827,12.4240577 20.6146635,13.1395385 20.6146635,14.0145385 L20.6146635,17.4041538 C22.3599519,16.7196346 23.5970673,15.0241538 23.5970673,13.0358846 L23.5970673,13.0358846 Z" id="Stroke-63" stroke="#4CD3DC"></path>
                <path d="M17.1883654,17.4043558 L17.1883654,21.991375 C17.1883654,22.8657019 17.9038462,23.5811827 18.7788462,23.5811827 L19.0245192,23.5811827 C19.8988462,23.5811827 20.6143269,22.8657019 20.6143269,21.991375 L20.6143269,17.4043558" id="Stroke-64" stroke="#4CD3DC"></path>
            </g>
        </g>
    </g>
</svg>